<svg width="10" height="10" viewBox="0 0 10 10" fill="none" xmlns="http://www.w3.org/2000/svg">
<path d="M5.73339 9.66663C5.60154 9.66607 5.47282 9.62644 5.3635 9.55273C5.25417 9.47902 5.16916 9.37455 5.11921 9.25253C5.06926 9.13051 5.05662 8.99641 5.08287 8.8672C5.10913 8.738 5.17311 8.61947 5.26672 8.52663L8.3334 5.47329C8.39588 5.41132 8.44548 5.33758 8.47932 5.25634C8.51317 5.1751 8.5306 5.08797 8.5306 4.99996C8.5306 4.91195 8.51317 4.82481 8.47932 4.74357C8.44548 4.66233 8.39588 4.5886 8.3334 4.52663L5.26672 1.47329C5.20424 1.41132 5.15464 1.33758 5.1208 1.25634C5.08695 1.1751 5.06953 1.08797 5.06953 0.999959C5.06953 0.911951 5.08695 0.824814 5.1208 0.743574C5.15464 0.662335 5.20424 0.588601 5.26672 0.526625C5.39163 0.402458 5.5606 0.332764 5.73673 0.332764C5.91285 0.332764 6.08182 0.402458 6.20673 0.526625L9.26673 3.58663C9.64127 3.96163 9.85164 4.46996 9.85164 4.99996C9.85164 5.52996 9.64127 6.03829 9.26673 6.41329L6.20673 9.47329C6.14443 9.53508 6.07056 9.58396 5.98933 9.61714C5.90811 9.65032 5.82113 9.66713 5.73339 9.66663Z" fill="#3C61E2"/>
<mask id="path-2-inside-1_583_874" fill="white">
<path d="M1.0667 9.66663C0.934855 9.66607 0.806131 9.62644 0.696809 9.55273C0.587487 9.47902 0.502475 9.37455 0.452525 9.25253C0.402575 9.13051 0.389928 8.99641 0.416185 8.8672C0.442442 8.738 0.506423 8.61947 0.600037 8.52663L4.1267 4.99996L0.600037 1.47329C0.537552 1.41132 0.487955 1.33758 0.454109 1.25634C0.420264 1.1751 0.402838 1.08797 0.402838 0.999959C0.402838 0.911951 0.420264 0.824814 0.454109 0.743574C0.487955 0.662335 0.537552 0.588601 0.600037 0.526625C0.724945 0.402458 0.893913 0.332764 1.07004 0.332764C1.24616 0.332764 1.41513 0.402458 1.54004 0.526625L5.54004 4.52663C5.60252 4.5886 5.65212 4.66233 5.68597 4.74357C5.71981 4.82481 5.73724 4.91195 5.73724 4.99996C5.73724 5.08797 5.71981 5.1751 5.68597 5.25634C5.65212 5.33758 5.60252 5.41132 5.54004 5.47329L1.54004 9.47329C1.47774 9.53508 1.40387 9.58396 1.32264 9.61714C1.24142 9.65032 1.15444 9.66713 1.0667 9.66663Z"/>
</mask>
<path d="M1.0667 9.66663C0.934855 9.66607 0.806131 9.62644 0.696809 9.55273C0.587487 9.47902 0.502475 9.37455 0.452525 9.25253C0.402575 9.13051 0.389928 8.99641 0.416185 8.8672C0.442442 8.738 0.506423 8.61947 0.600037 8.52663L4.1267 4.99996L0.600037 1.47329C0.537552 1.41132 0.487955 1.33758 0.454109 1.25634C0.420264 1.1751 0.402838 1.08797 0.402838 0.999959C0.402838 0.911951 0.420264 0.824814 0.454109 0.743574C0.487955 0.662335 0.537552 0.588601 0.600037 0.526625C0.724945 0.402458 0.893913 0.332764 1.07004 0.332764C1.24616 0.332764 1.41513 0.402458 1.54004 0.526625L5.54004 4.52663C5.60252 4.5886 5.65212 4.66233 5.68597 4.74357C5.71981 4.82481 5.73724 4.91195 5.73724 4.99996C5.73724 5.08797 5.71981 5.1751 5.68597 5.25634C5.65212 5.33758 5.60252 5.41132 5.54004 5.47329L1.54004 9.47329C1.47774 9.53508 1.40387 9.58396 1.32264 9.61714C1.24142 9.65032 1.15444 9.66713 1.0667 9.66663Z" fill="#3C61E2"/>
<path d="M1.0667 9.66663L1.19004 -11.6664L1.1731 -11.6664L1.15615 -11.6665L1.0667 9.66663ZM0.600037 8.52663L15.6228 23.6735L15.654 23.6426L15.685 23.6116L0.600037 8.52663ZM4.1267 4.99996L19.2117 20.0849L34.2966 4.99996L19.2116 -10.085L4.1267 4.99996ZM0.600037 1.47329L15.685 -13.6117L15.6541 -13.6426L15.623 -13.6734L0.600037 1.47329ZM0.600037 0.526625L15.623 15.6733L15.6315 15.6648L15.64 15.6564L0.600037 0.526625ZM1.07004 0.332764V-21.0006V0.332764ZM1.54004 0.526625L16.625 -14.5583L16.6025 -14.5808L16.58 -14.6031L1.54004 0.526625ZM5.54004 4.52663L-9.54491 19.6116L-9.51398 19.6425L-9.48293 19.6733L5.54004 4.52663ZM5.73724 4.99996H-15.5961H5.73724ZM5.54004 5.47329L-9.48293 -9.67337L-9.51398 -9.64258L-9.54491 -9.61166L5.54004 5.47329ZM1.54004 9.47329L16.5634 24.6196L16.5942 24.589L16.625 24.5582L1.54004 9.47329ZM1.15615 -11.6665C5.24345 -11.6494 9.23389 -10.4207 12.6229 -8.13568L-11.2293 27.2411C-7.62162 29.6735 -3.37373 30.9815 0.977257 30.9998L1.15615 -11.6665ZM12.6229 -8.13568C16.0119 -5.85073 18.6472 -2.61217 20.1957 1.17053L-19.2906 17.3345C-17.6423 21.3613 -14.8369 24.8088 -11.2293 27.2411L12.6229 -8.13568ZM20.1957 1.17053C21.7442 4.95323 22.1362 9.11012 21.3222 13.1156L-20.4899 4.61884C-21.3563 8.88271 -20.939 13.3078 -19.2906 17.3345L20.1957 1.17053ZM21.3222 13.1156C20.5083 17.1211 18.5248 20.7952 15.6228 23.6735L-14.4227 -6.62023C-17.512 -3.55628 -19.6234 0.354928 -20.4899 4.61884L21.3222 13.1156ZM15.685 23.6116L19.2117 20.0849L-10.9582 -10.085L-14.4849 -6.55832L15.685 23.6116ZM19.2116 -10.085L15.685 -13.6117L-14.4849 16.5582L-10.9582 20.0849L19.2116 -10.085ZM15.623 -13.6734C17.56 -11.7522 19.0975 -9.46641 20.1468 -6.94796L-19.2385 9.46064C-18.1216 12.1416 -16.4849 14.5748 -14.4229 16.62L15.623 -13.6734ZM20.1468 -6.94796C21.196 -4.42951 21.7362 -1.72826 21.7362 0.999959H-20.9305C-20.9305 3.90419 -20.3555 6.77971 -19.2385 9.46064L20.1468 -6.94796ZM21.7362 0.999959C21.7362 3.72817 21.196 6.42942 20.1468 8.94788L-19.2385 -7.46073C-20.3555 -4.7798 -20.9305 -1.90427 -20.9305 0.999959H21.7362ZM20.1468 8.94788C19.0975 11.4663 17.56 13.7521 15.623 15.6733L-14.4229 -14.62C-16.4849 -12.5749 -18.1216 -10.1417 -19.2385 -7.46073L20.1468 8.94788ZM15.64 15.6564C11.7679 19.5056 6.52987 21.6661 1.07004 21.6661V-21.0006C-4.74204 -21.0006 -10.318 -18.7007 -14.44 -14.6031L15.64 15.6564ZM1.07004 21.6661C-4.38979 21.6661 -9.6278 19.5056 -13.5 15.6564L16.58 -14.6031C12.4581 -18.7007 6.88211 -21.0006 1.07004 -21.0006V21.6661ZM-13.5449 15.6116L-9.54491 19.6116L20.625 -10.5583L16.625 -14.5583L-13.5449 15.6116ZM-9.48293 19.6733C-11.42 17.752 -12.9575 15.4663 -14.0067 12.9479L25.3786 -3.46073C24.2617 -6.14162 22.625 -8.57485 20.563 -10.62L-9.48293 19.6733ZM-14.0067 12.9479C-15.0559 10.4294 -15.5961 7.72817 -15.5961 4.99996H27.0706C27.0706 2.09573 26.4955 -0.779796 25.3786 -3.46073L-14.0067 12.9479ZM-15.5961 4.99996C-15.5961 2.27174 -15.0559 -0.429506 -14.0067 -2.94796L25.3786 13.4606C26.4955 10.7797 27.0706 7.90419 27.0706 4.99996H-15.5961ZM-14.0067 -2.94796C-12.9575 -5.46637 -11.42 -7.75213 -9.48293 -9.67337L20.563 20.62C22.625 18.5748 24.2617 16.1415 25.3786 13.4606L-14.0067 -2.94796ZM-9.54491 -9.61166L-13.5449 -5.61166L16.625 24.5582L20.625 20.5582L-9.54491 -9.61166ZM-13.4833 -5.67302C-11.5523 -7.58833 -9.26214 -9.10377 -6.74403 -10.1323L9.38931 29.3666C12.0699 28.2717 14.5078 26.6585 16.5634 24.6196L-13.4833 -5.67302ZM-6.74403 -10.1323C-4.226 -11.1608 -1.52977 -11.6821 1.19004 -11.6664L0.943366 30.9996C3.83865 31.0163 6.70883 30.4614 9.38931 29.3666L-6.74403 -10.1323Z" fill="#3C61E2" mask="url(#path-2-inside-1_583_874)"/>
</svg>
