<svg width="56" height="56" viewBox="0 0 56 56" fill="none" xmlns="http://www.w3.org/2000/svg">
<g clip-path="url(#clip0_583_1010)">
<path d="M43.9622 44.6912H3.00781C1.79966 44.6912 0.820312 43.7119 0.820312 42.5037V7.20337H46.1497V42.5037C46.1497 43.7118 45.1703 44.6912 43.9622 44.6912Z" fill="white"/>
<path d="M46.1497 42.5037V25.9087H40.8144V31.9277C40.8144 32.5318 40.3247 33.0215 39.7206 33.0215H25.3405V44.6912H43.9622C45.1703 44.6912 46.1497 43.7118 46.1497 42.5037Z" fill="#C5D2FF"/>
<path d="M39.7206 33.0216H7.24939C6.64531 33.0216 6.15564 32.532 6.15564 31.9279V14.386C6.15564 13.7819 6.64531 13.2922 7.24939 13.2922H39.7206C40.3247 13.2922 40.8144 13.7819 40.8144 14.386V31.9279C40.8144 32.5318 40.3247 33.0216 39.7206 33.0216Z" fill="#97AEFB"/>
<path d="M8.49845 31.9279V14.386C8.49845 13.7819 8.98812 13.2922 9.5922 13.2922H7.24939C6.64531 13.2922 6.15564 13.7819 6.15564 14.386V31.9279C6.15564 32.532 6.64531 33.0216 7.24939 33.0216H9.5922C8.98812 33.0216 8.49845 32.5318 8.49845 31.9279Z" fill="#3C61E2"/>
<path d="M43.9622 0.820312H3.00781C1.79966 0.820312 0.820312 1.79966 0.820312 3.00781V8.57467H46.1497V3.00781C46.1497 1.79966 45.1703 0.820312 43.9622 0.820312Z" fill="#C5D2FF"/>
<path d="M5.87967 0.820312H3.00781C1.79966 0.820312 0.820312 1.79966 0.820312 3.00781V8.57456H3.69217V3.00781C3.69217 1.79966 4.67163 0.820312 5.87967 0.820312Z" fill="#C5D2FF"/>
<path d="M25.3405 30.2837V33.0215H39.7206C40.3247 33.0215 40.8144 32.5318 40.8144 31.9277V25.9087H29.7155C27.3031 25.9087 25.3405 27.8713 25.3405 30.2837Z" fill="#3C61E2"/>
<path d="M16.9881 40.7293V36.9753C16.9881 36.5685 17.4164 36.3042 17.78 36.4864L22.5006 38.8523L17.78 41.2182C17.4163 41.4005 16.9881 41.136 16.9881 40.7293Z" fill="#97AEFB"/>
<path d="M21.0704 27.5547L28.0869 23.6341C28.4604 23.4254 28.4604 22.888 28.0869 22.6793L21.0704 18.7587C20.7059 18.5551 20.2568 18.8186 20.2568 19.2361V27.0771C20.2568 27.4948 20.7059 27.7583 21.0704 27.5547Z" fill="white"/>
<path d="M53.5391 55.1796H29.7155C28.8095 55.1796 28.0749 54.4451 28.0749 53.539V30.2837C28.0749 29.3776 28.8095 28.6431 29.7155 28.6431H53.5391C54.4451 28.6431 55.1797 29.3776 55.1797 30.2837V53.539C55.1797 54.4451 54.4451 55.1796 53.5391 55.1796Z" fill="white"/>
<path d="M55.1797 35.6781H49.7853C48.8792 35.6781 48.1447 34.9435 48.1447 34.0374V28.6431H53.5391C54.4451 28.6431 55.1797 29.3776 55.1797 30.2837V35.6781Z" fill="#97AEFB"/>
<path d="M24.3119 43.8709H3.00781C2.25389 43.8709 1.64062 43.2577 1.64062 42.5038V27.1448C1.64062 26.6916 1.27334 26.3245 0.820312 26.3245C0.367281 26.3245 0 26.6916 0 27.1448V42.5039C0 44.1623 1.34925 45.5117 3.00781 45.5117H24.3119C24.7649 45.5117 25.1322 45.1445 25.1322 44.6914C25.1322 44.2382 24.7649 43.8709 24.3119 43.8709Z" fill="#2F4BAC"/>
<path d="M0.820312 23.4828C1.27334 23.4828 1.64062 23.1156 1.64062 22.6625V9.39488H32.9787C33.4318 9.39488 33.7991 9.0277 33.7991 8.57456C33.7991 8.12142 33.4318 7.75425 32.9787 7.75425H1.64062V3.00781C1.64062 2.25389 2.254 1.64063 3.00781 1.64063H43.9622C44.7161 1.64063 45.3294 2.25389 45.3294 3.00781V7.75425H37.1197C36.6667 7.75425 36.2994 8.12142 36.2994 8.57456C36.2994 9.0277 36.6667 9.39488 37.1197 9.39488H45.3294V24.8631C45.3294 25.3163 45.6967 25.6834 46.1497 25.6834C46.6027 25.6834 46.97 25.3163 46.97 24.8631V3.00781C46.97 1.34936 45.6208 0 43.9622 0H3.00781C1.34936 0 0 1.34936 0 3.00781V22.6625C0 23.1156 0.367281 23.4828 0.820312 23.4828Z" fill="#2F4BAC"/>
<path d="M4.9386 4.11475C4.48557 4.11475 4.11829 4.48192 4.11829 4.93506C4.11829 5.3882 4.48557 5.75537 4.9386 5.75537H5.7786C6.23163 5.75537 6.59891 5.3882 6.59891 4.93506C6.59891 4.48192 6.23163 4.11475 5.7786 4.11475H4.9386Z" fill="#2F4BAC"/>
<path d="M9.03406 4.11475C8.58103 4.11475 8.21375 4.48192 8.21375 4.93506C8.21375 5.3882 8.58103 5.75537 9.03406 5.75537H9.87406C10.3271 5.75537 10.6944 5.3882 10.6944 4.93506C10.6944 4.48192 10.3271 4.11475 9.87406 4.11475H9.03406Z" fill="#2F4BAC"/>
<path d="M13.1294 4.11475C12.6763 4.11475 12.3091 4.48192 12.3091 4.93506C12.3091 5.3882 12.6763 5.75537 13.1294 5.75537H13.9694C14.4224 5.75537 14.7897 5.3882 14.7897 4.93506C14.7897 4.48192 14.4224 4.11475 13.9694 4.11475H13.1294Z" fill="#2F4BAC"/>
<path d="M24.5919 38.0318H22.6947L18.1475 35.7528C17.7205 35.5389 17.223 35.5609 16.8166 35.8118C16.4103 36.0627 16.1677 36.4976 16.1677 36.9751V38.0318H13.3306C12.8776 38.0318 12.5103 38.399 12.5103 38.8521C12.5103 39.3052 12.8776 39.6724 13.3306 39.6724H16.1677V40.7291C16.1677 41.2066 16.4103 41.6416 16.8166 41.8925C17.0376 42.0289 17.2853 42.0976 17.5341 42.0976C17.743 42.0976 17.9527 42.0491 18.1476 41.9515L22.6948 39.6724H24.592C25.045 39.6724 25.4123 39.3052 25.4123 38.8521C25.4123 38.399 25.0449 38.0318 24.5919 38.0318ZM17.8083 40.2862V37.418L20.6698 38.852L17.8083 40.2862Z" fill="#2F4BAC"/>
<path d="M6.15564 40.7552C6.60867 40.7552 6.97595 40.3881 6.97595 39.9349V37.7693C6.97595 37.3161 6.60867 36.949 6.15564 36.949C5.70261 36.949 5.33533 37.3161 5.33533 37.7693V39.9349C5.33533 40.3881 5.70261 40.7552 6.15564 40.7552Z" fill="#3C61E2"/>
<path d="M10.1347 39.9349V37.7693C10.1347 37.3161 9.76739 36.949 9.31436 36.949C8.86133 36.949 8.49405 37.3161 8.49405 37.7693V39.9349C8.49405 40.3881 8.86133 40.7552 9.31436 40.7552C9.76739 40.7552 10.1347 40.3881 10.1347 39.9349Z" fill="#3C61E2"/>
<path d="M28.4869 21.9634L21.4705 18.0429C21.0426 17.8037 20.5346 17.809 20.1118 18.0572C19.6889 18.3053 19.4365 18.746 19.4365 19.2363V27.0772C19.4365 27.5675 19.6889 28.0085 20.1118 28.2564C20.3275 28.383 20.5652 28.4464 20.8034 28.4464C21.0319 28.4464 21.2609 28.3879 21.4705 28.2707L28.4869 24.3502C28.9189 24.1088 29.1873 23.6515 29.1873 23.1568C29.1873 22.662 28.919 22.2048 28.4869 21.9634ZM21.0771 26.6113V19.7024L27.2594 23.1569L21.0771 26.6113Z" fill="#2F4BAC"/>
<path d="M53.0756 30.747C52.7553 30.4268 52.236 30.4268 51.9155 30.747L51.6621 31.0004L51.4087 30.747C51.0883 30.4269 50.569 30.4267 50.2486 30.747C49.9283 31.0675 49.9283 31.5868 50.2486 31.9072L50.5019 32.1605L50.2486 32.4138C49.9283 32.7343 49.9283 33.2536 50.2486 33.5739C50.4088 33.7341 50.6188 33.8141 50.8286 33.8141C51.0385 33.8141 51.2485 33.7341 51.4087 33.5739L51.6621 33.3205L51.9155 33.5739C52.0757 33.7341 52.2856 33.8141 52.4955 33.8141C52.7054 33.8141 52.9154 33.7341 53.0755 33.5739C53.3959 33.2535 53.3959 32.7341 53.0755 32.4138L52.8222 32.1605L53.0755 31.9072C53.396 31.5868 53.396 31.0675 53.0756 30.747Z" fill="white"/>
<path d="M31.6122 45.8586C31.7084 45.8952 31.807 45.9125 31.904 45.9125C32.2346 45.9125 32.5462 45.7112 32.6707 45.3839L33.0695 44.3368H35.8078L36.2021 45.3817C36.3622 45.8055 36.8355 46.0196 37.2592 45.8594C37.6831 45.6995 37.8971 45.2263 37.7371 44.8023L35.3498 38.4764C35.3469 38.4689 35.344 38.4612 35.3408 38.4538C35.1912 38.0904 34.8407 37.8557 34.4478 37.8557C34.4473 37.8557 34.4469 37.8557 34.4466 37.8557C34.0531 37.8563 33.7028 38.0919 33.5539 38.456C33.5514 38.4621 33.549 38.4682 33.5466 38.4744L31.1374 44.8C30.9763 45.2234 31.1888 45.6974 31.6122 45.8586ZM34.445 40.7254L35.1888 42.6963H33.6944L34.445 40.7254Z" fill="#3C61E2"/>
<path d="M39.3524 45.0529C39.3659 45.251 39.4501 45.4383 39.5919 45.5791C39.7456 45.7317 39.9533 45.8172 40.1698 45.8172H40.1729C40.2262 45.817 41.4837 45.8122 41.9864 45.8035C43.8805 45.7703 45.2551 44.1219 45.2551 41.8839C45.2551 39.5311 43.915 37.9504 41.9205 37.9504H40.1571C39.9394 37.9504 39.7305 38.0371 39.5766 38.1913C39.4227 38.3454 39.3365 38.5544 39.3368 38.7723C39.3369 38.7723 39.3425 45.0021 39.3524 45.0529ZM41.9206 39.5912C43.4924 39.5912 43.6146 41.3461 43.6146 41.884C43.6146 43.004 43.1023 44.1431 41.9579 44.1632C41.7341 44.1671 41.3455 44.1702 40.9873 44.1725C40.985 43.439 40.9803 40.3548 40.979 39.5912H41.9206Z" fill="#3C61E2"/>
<path d="M49.4203 44.2718C48.7878 44.2718 48.1791 44.0169 47.7923 43.5901C47.488 43.2546 46.9692 43.229 46.6336 43.5333C46.2979 43.8374 46.2724 44.3562 46.5766 44.692C47.2693 45.4561 48.3323 45.9124 49.4202 45.9124C50.7812 45.9124 51.9243 45.0433 52.1381 43.8458C52.2991 42.9439 51.8907 41.766 50.2612 41.1649C49.4762 40.8755 48.7453 40.5601 48.5177 40.4606C48.3523 40.3261 48.358 40.1394 48.3691 40.0615C48.3849 39.9518 48.4648 39.6834 48.8666 39.5624C49.7611 39.2923 50.5922 39.9486 50.6155 39.9672C50.9622 40.2545 51.4766 40.2088 51.7669 39.8635C52.0583 39.5167 52.0135 38.9992 51.6667 38.7078C51.6058 38.6566 50.1554 37.4608 48.3934 37.9915C47.5008 38.2603 46.8692 38.9642 46.7451 39.8284C46.6286 40.6396 46.9804 41.42 47.6629 41.865C47.6991 41.8886 47.7372 41.9093 47.7766 41.9268C47.8138 41.9434 48.6979 42.337 49.6936 42.7041C49.9705 42.8064 50.6058 43.0939 50.523 43.5573C50.4603 43.9084 50.0306 44.2718 49.4203 44.2718Z" fill="#3C61E2"/>
<path d="M53.5391 27.8229H48.1447H41.6347V14.386C41.6347 13.3306 40.776 12.4719 39.7206 12.4719H7.24939C6.19403 12.4719 5.33533 13.3306 5.33533 14.386V31.9278C5.33533 32.9831 6.19403 33.8418 7.24939 33.8418H27.2546V53.5392C27.2546 54.8961 28.3587 56.0001 29.7156 56.0001H53.5391C54.896 56.0001 56 54.8961 56 53.5392V43.5166C56 43.0635 55.6327 42.6963 55.1797 42.6963C54.7267 42.6963 54.3594 43.0635 54.3594 43.5166V53.5392C54.3594 53.9915 53.9913 54.3595 53.5391 54.3595H29.7156C29.2633 54.3595 28.8952 53.9915 28.8952 53.5392V30.2839C28.8952 29.8315 29.2633 29.4635 29.7156 29.4635H47.3244V34.0376C47.3244 35.3945 48.4284 36.4986 49.7853 36.4986H54.3594V39.607C54.3594 40.0601 54.7267 40.4273 55.1797 40.4273C55.6327 40.4273 56 40.0601 56 39.607V35.6782V30.2839C56 28.927 54.896 27.8229 53.5391 27.8229ZM27.2546 30.2839V32.2012H7.24939C7.09867 32.2012 6.97595 32.0786 6.97595 31.9278V14.386C6.97595 14.2352 7.09867 14.1125 7.24939 14.1125H39.7206C39.8714 14.1125 39.9941 14.2352 39.9941 14.386V27.8229H29.7156C28.3585 27.8229 27.2546 28.927 27.2546 30.2839ZM49.7853 34.8579C49.3331 34.8579 48.965 34.49 48.965 34.0376V29.4635H53.5391C53.9913 29.4635 54.3594 29.8315 54.3594 30.2839V34.8579H49.7853Z" fill="#2F4BAC"/>
<path d="M51.3669 47.4509H31.9041C31.4511 47.4509 31.0838 47.8181 31.0838 48.2712C31.0838 48.7244 31.4511 49.0916 31.9041 49.0916H51.3669C51.8199 49.0916 52.1872 48.7244 52.1872 48.2712C52.1872 47.8181 51.8199 47.4509 51.3669 47.4509Z" fill="#2F4BAC"/>
<path d="M51.3669 50.8267H31.9041C31.4511 50.8267 31.0838 51.1938 31.0838 51.647C31.0838 52.1001 31.4511 52.4673 31.9041 52.4673H51.3669C51.8199 52.4673 52.1872 52.1001 52.1872 51.647C52.1872 51.1938 51.8199 50.8267 51.3669 50.8267Z" fill="#2F4BAC"/>
</g>
<defs>
<clipPath id="clip0_583_1010">
<rect width="56" height="56" fill="white"/>
</clipPath>
</defs>
</svg>
