<svg width="56" height="56" viewBox="0 0 56 56" fill="none" xmlns="http://www.w3.org/2000/svg">
<g clip-path="url(#clip0_583_910)">
<path d="M0.984375 3.39063V39.2639C0.984375 40.4722 1.96362 41.4514 3.17188 41.4514H44.0764C45.2847 41.4514 46.264 40.4722 46.264 39.2639V3.39063C46.264 2.18237 45.2847 1.20312 44.0764 1.20312H3.17188C1.96362 1.20312 0.984375 2.18237 0.984375 3.39063Z" fill="white"/>
<path d="M3.17188 1.20312H44.0764C45.2847 1.20312 46.264 2.18237 46.264 3.39063V10.8277H0.984375V3.39063C0.984375 2.18237 1.96362 1.20312 3.17188 1.20312Z" fill="#C5D2FF"/>
<path d="M6.23401 16.0771H33.3582V32.7017H6.23401V16.0771Z" fill="#97AEFB"/>
<path d="M49.981 36.0018L30.0436 30.2605L35.7853 50.198L39.1794 46.8035L47.3894 55.0134L54.797 47.6058L46.587 39.3963L49.981 36.0018Z" fill="#C5D2FF"/>
<path d="M6.71973 7.10938H6.72998C7.33368 7.10938 7.81818 6.61975 7.81818 6.01563C7.81818 5.4115 7.32343 4.92188 6.71973 4.92188C6.1156 4.92188 5.62598 5.4115 5.62598 6.01563C5.62598 6.61975 6.1156 7.10938 6.71973 7.10938Z" fill="#2F4BAC"/>
<path d="M11.6963 7.10938H11.7065C12.3107 7.10938 12.7952 6.61975 12.7952 6.01563C12.7952 5.4115 12.3004 4.92188 11.6963 4.92188C11.0922 4.92188 10.6025 5.4115 10.6025 6.01563C10.6025 6.61975 11.0922 7.10938 11.6963 7.10938Z" fill="#2F4BAC"/>
<path d="M16.6733 7.10938H16.6836C17.2873 7.10938 17.7722 6.61975 17.7722 6.01563C17.7722 5.4115 17.277 4.92188 16.6733 4.92188C16.0692 4.92188 15.5796 5.4115 15.5796 6.01563C15.5796 6.61975 16.0692 7.10938 16.6733 7.10938Z" fill="#2F4BAC"/>
<path d="M25.2379 7.10895H40.4671C41.0712 7.10895 41.5609 6.61932 41.5609 6.0152C41.5609 5.4115 41.0712 4.92188 40.4671 4.92188H25.2379C24.6342 4.92188 24.1442 5.4115 24.1442 6.0152C24.1442 6.61932 24.6338 7.10895 25.2379 7.10895Z" fill="#2F4BAC"/>
<path d="M46.2639 29.4211C45.9764 29.4211 45.694 29.5378 45.4906 29.7416C45.2872 29.9449 45.1702 30.2269 45.1702 30.5145C45.1702 30.8024 45.2872 31.0844 45.4906 31.2878C45.694 31.4912 45.9764 31.6082 46.2639 31.6082C46.5515 31.6082 46.8334 31.4912 47.0368 31.2878C47.2402 31.0844 47.3577 30.8024 47.3577 30.5145C47.3577 30.2269 47.2406 29.9449 47.0368 29.7416C46.8334 29.5378 46.5515 29.4211 46.2639 29.4211Z" fill="#2F4BAC"/>
<path d="M23.3674 19.3584H22.0054C21.4012 19.3584 20.9116 19.848 20.9116 20.4521V28.3267C20.9116 28.9309 21.4012 29.4205 22.0054 29.4205H23.3674C26.1411 29.4205 28.3983 27.1638 28.3983 24.3897C28.3983 21.6155 26.1415 19.3584 23.3674 19.3584ZM23.3674 27.233H23.0991V21.5459H23.3674C24.9354 21.5459 26.2108 22.8217 26.2108 24.3897C26.2108 25.9576 24.9354 27.233 23.3674 27.233Z" fill="white"/>
<path d="M15.9739 20.1035C15.8243 19.6583 15.4069 19.3584 14.9374 19.3584C14.4678 19.3584 14.0504 19.6583 13.9009 20.1035L11.2511 27.9781C11.0584 28.5506 11.366 29.171 11.9385 29.3637C12.5114 29.5563 13.1314 29.2483 13.3241 28.6758L13.4048 28.4361H16.4699L16.5502 28.6758C16.704 29.1325 17.13 29.4209 17.5867 29.4209C17.7025 29.4209 17.82 29.4025 17.9358 29.3637C18.5083 29.171 18.8163 28.5506 18.6232 27.9781L15.9739 20.1035ZM14.1405 26.249L14.9374 23.8817L15.7337 26.249H14.1405Z" fill="white"/>
<path d="M55.5702 46.833L48.1336 39.3964L50.7547 36.7757C51.0282 36.5018 51.1371 36.1036 51.0401 35.7289C50.9436 35.3542 50.656 35.0581 50.2839 34.9513L34.4519 30.3917V16.0773C34.4519 15.4736 33.9622 14.984 33.3581 14.984H6.23395C5.63025 14.984 5.14063 15.4736 5.14063 16.0773V32.7019C5.14063 33.306 5.63025 33.7956 6.23395 33.7956H29.9235L31.8136 40.3577H3.17188C2.56861 40.3577 2.07813 39.8672 2.07813 39.2639V11.9215H45.1702V26.1398C45.1702 26.7435 45.6598 27.2331 46.264 27.2331C46.8676 27.2331 47.3577 26.7435 47.3577 26.1398V3.39063C47.3577 1.58124 45.8858 0.109375 44.0765 0.109375H3.17188C1.36249 0.109375 -0.109375 1.58124 -0.109375 3.39063V39.2639C-0.109375 41.0733 1.36249 42.5452 3.17188 42.5452H32.4434L34.7343 50.5005C34.8415 50.8727 35.1372 51.1602 35.5119 51.2567C35.8861 51.3533 36.2848 51.2452 36.5586 50.9713L39.1794 48.3506L46.616 55.7873C46.8211 55.9923 47.0992 56.1073 47.3893 56.1073C47.6794 56.1073 47.9576 55.9923 48.1626 55.7873L55.5702 48.3797C55.9975 47.9524 55.9975 47.2599 55.5702 46.833ZM3.17188 2.29688H44.0765C44.6793 2.29688 45.1702 2.78736 45.1702 3.39063V9.73395H2.07813V3.39063C2.07813 2.78736 2.56861 2.29688 3.17188 2.29688ZM7.3277 31.6081V17.171H32.2644V29.7616L30.3465 29.2091C29.9636 29.0993 29.5518 29.2053 29.2702 29.4868C28.9887 29.7684 28.8827 30.1807 28.9925 30.5631L29.2937 31.6081H7.3277ZM47.3893 53.4669L39.9531 46.0302C39.7395 45.8166 39.4596 45.7098 39.1798 45.7098C38.8995 45.7098 38.6197 45.8166 38.406 46.0302L36.3232 48.1135L31.6419 31.8589L47.8965 36.5398L45.8136 38.6231C45.6086 38.8277 45.4932 39.1063 45.4932 39.3964C45.4932 39.6861 45.6086 39.9646 45.8136 40.1697L53.2503 47.6059L47.3893 53.4669Z" fill="#2F4BAC"/>
<path d="M13.8651 38.1702C14.4692 38.1702 14.9588 37.6806 14.9588 37.0769C14.9588 36.4728 14.4692 35.9832 13.8651 35.9832H6.39038C5.78626 35.9832 5.29663 36.4728 5.29663 37.0769C5.29663 37.6806 5.78626 38.1702 6.39038 38.1702H13.8651Z" fill="#3C61E2"/>
<path d="M18.9582 37.8502C19.1616 37.6469 19.2786 37.3644 19.2786 37.0769C19.2786 36.7894 19.162 36.507 18.9582 36.3036C18.7548 36.1002 18.4728 35.9832 18.1849 35.9832C17.8973 35.9832 17.6154 36.1002 17.412 36.3036C17.2086 36.507 17.0916 36.7894 17.0916 37.0769C17.0916 37.3644 17.2082 37.6469 17.412 37.8502C17.6154 38.0536 17.8973 38.1707 18.1849 38.1707C18.4728 38.1707 18.7548 38.0536 18.9582 37.8502Z" fill="#3C61E2"/>
</g>
<defs>
<clipPath id="clip0_583_910">
<rect width="56" height="56" fill="white"/>
</clipPath>
</defs>
</svg>
