<svg width="54" height="56" viewBox="0 0 54 56" fill="none" xmlns="http://www.w3.org/2000/svg">
<path d="M26.4711 55.1797C25.7045 55.1797 25.083 54.5582 25.083 53.7916V40.6477L26.3125 39.7512L27.8592 40.6477V53.7915C27.8593 54.5582 27.2378 55.1797 26.4711 55.1797Z" fill="#C5D2FF"/>
<path d="M16.163 55.1797H15.8792C14.9732 55.1797 14.31 54.3257 14.5343 53.4478L17.8058 40.6477L19.4532 39.7512L20.955 40.6477L17.5078 54.1352C17.3509 54.7498 16.7972 55.1797 16.163 55.1797Z" fill="#C5D2FF"/>
<path d="M36.7792 55.1797H37.0631C37.9691 55.1797 38.6323 54.3257 38.4079 53.4478L35.1365 40.6477L33.5281 39.7512L31.9873 40.6477L35.4345 54.1352C35.5914 54.7498 36.145 55.1797 36.7792 55.1797Z" fill="#C5D2FF"/>
<path d="M51.7614 12.0039V12.8756H1.18097V12.0039C1.18097 10.2768 2.58097 8.87793 4.308 8.87793H48.6344C50.3614 8.87793 51.7614 10.2768 51.7614 12.0039Z" fill="#C5D2FF"/>
<path d="M51.7614 12.8757V37.5212C51.7614 39.2482 50.3614 40.6482 48.6344 40.6482H4.308C2.58097 40.6482 1.18097 39.2482 1.18097 37.5212V12.8757H51.7614Z" fill="#EAF6FF"/>
<path d="M51.7615 12.8757V37.5212C51.7615 39.2482 50.3615 40.6482 48.6344 40.6482H44.5515C46.2785 40.6482 47.6785 39.2482 47.6785 37.5212V12.8757H51.7615Z" fill="#C5D2FF"/>
<path d="M21.2643 10.2179V7.53703L18.8569 7.0303C18.8477 7.02833 18.84 7.02199 18.8364 7.01334L18.5058 6.21578C18.502 6.20692 18.503 6.19675 18.5083 6.18866L19.8523 4.12803L17.9566 2.23234L15.8831 3.58477L15.0574 3.24242L14.5476 0.820312H11.8668L11.357 3.24253L10.5456 3.57897C10.5367 3.58269 10.5265 3.5817 10.5184 3.57645L8.4577 2.23234L6.56212 4.12803L7.90612 6.18866C7.91137 6.19675 7.91235 6.20681 7.90863 6.21578L7.57799 7.01334C7.57438 7.02199 7.56673 7.02833 7.55754 7.0303L5.15009 7.53703V10.2179L7.55754 10.7247C7.56673 10.7266 7.57438 10.733 7.57799 10.7416L7.90863 11.5392C7.91235 11.548 7.91137 11.5582 7.90612 11.5663L6.56212 13.6269L8.4577 15.5225L10.5312 14.1701L11.343 14.5066C11.3516 14.5102 11.358 14.5179 11.36 14.5271L11.8667 16.9345H14.5475L15.0574 14.5124L15.8831 14.1701L17.9566 15.5225L19.8522 13.6269L18.5082 11.5663C18.5029 11.5582 18.5019 11.5481 18.5056 11.5392L18.8363 10.7416C18.8399 10.733 18.8476 10.7266 18.8567 10.7247L21.2643 10.2179Z" fill="#C5D2FF"/>
<path d="M13.2072 11.5254C14.6696 11.5254 15.8551 10.3399 15.8551 8.87746C15.8551 7.41503 14.6696 6.22949 13.2072 6.22949C11.7447 6.22949 10.5592 7.41503 10.5592 8.87746C10.5592 10.3399 11.7447 11.5254 13.2072 11.5254Z" fill="#97AEFB"/>
<path d="M18.2359 40.6481C18.2359 43.4254 15.9841 45.6764 13.207 45.6764C12.8175 45.6764 12.4381 45.632 12.0738 45.5484C9.84251 45.0342 8.17859 43.0358 8.17859 40.648C8.17859 38.2603 9.84251 36.2619 12.0738 35.7477C12.438 35.6641 12.8175 35.6196 13.207 35.6196C15.9842 35.6198 18.2359 37.8709 18.2359 40.6481Z" fill="#97AEFB"/>
<path d="M18.2358 40.6481C18.2358 43.4251 15.9838 45.6761 13.2067 45.6761C12.8174 45.6761 12.4378 45.6323 12.0736 45.5481C14.3049 45.034 15.9685 43.0357 15.9685 40.6481C15.9685 38.2604 14.3049 36.2621 12.0736 35.7481C12.4378 35.6639 12.8174 35.6201 13.2067 35.6201C15.9838 35.6201 18.2358 37.8711 18.2358 40.6481Z" fill="#C5D2FF"/>
<path d="M52.8188 9.19219V14.3993C52.8188 14.8379 52.6412 15.2333 52.3546 15.521C52.068 15.8074 51.6706 15.9851 51.233 15.9851C50.358 15.9851 49.6471 15.2755 49.6471 14.3993V13.0434L36.2414 26.4481C35.9438 26.7468 35.4619 26.7468 35.1642 26.4481L31.1932 22.4781C30.8956 22.1805 30.4136 22.1805 30.1148 22.4781L23.383 29.211C22.7645 29.8306 21.7607 29.8306 21.1409 29.211C20.8311 28.9011 20.6768 28.4959 20.6768 28.0906C20.6768 27.6841 20.8311 27.2788 21.1409 26.9689L30.1148 17.995C30.4135 17.6963 30.8956 17.6963 31.1932 17.995L35.1631 21.9639C35.4619 22.2626 35.9439 22.2626 36.2415 21.9639L47.4052 10.8002H46.0481C45.6106 10.8002 45.2142 10.6226 44.9277 10.336C44.6413 10.0496 44.4635 9.65201 44.4635 9.21451C44.4635 8.3394 45.1731 7.62988 46.0481 7.62988H51.2552C52.1191 7.62977 52.8188 8.32934 52.8188 9.19219Z" fill="#97AEFB"/>
<path d="M7.49957 21.2422H15.8552V24.4131H7.49957V21.2422Z" fill="#C5D2FF"/>
<path d="M13.2072 5.40918C11.2948 5.40918 9.73889 6.96504 9.73889 8.87746C9.73889 10.7899 11.2948 12.3459 13.2072 12.3459C15.1196 12.3459 16.6756 10.7899 16.6756 8.87746C16.6756 6.96504 15.1196 5.40918 13.2072 5.40918ZM13.2072 10.7052C12.1994 10.7052 11.3795 9.88535 11.3795 8.87746C11.3795 7.86968 12.1994 7.0498 13.2072 7.0498C14.2151 7.0498 15.0349 7.86968 15.0349 8.87746C15.0348 9.88535 14.215 10.7052 13.2072 10.7052Z" fill="#2F4BAC"/>
<path d="M16.6754 24.4131V21.2422C16.6754 20.789 16.3082 20.4219 15.8551 20.4219H7.49951C7.04637 20.4219 6.6792 20.789 6.6792 21.2422V24.4131C6.6792 24.8662 7.04637 25.2334 7.49951 25.2334H15.8552C16.3082 25.2334 16.6754 24.8662 16.6754 24.4131ZM15.0348 23.5928H8.31982V22.0625H15.0349V23.5928H15.0348Z" fill="#3C61E2"/>
<path d="M51.2551 6.80947H46.0481C45.1413 6.80947 44.3504 7.31413 43.9407 8.05711H22.0846V7.53703C22.0846 7.14908 21.8129 6.81428 21.4333 6.73433L19.4343 6.31345C19.4307 6.3047 19.4271 6.29595 19.4234 6.2872L20.5393 4.57614C20.7513 4.25119 20.7066 3.82222 20.4323 3.54802L18.5367 1.65233C18.2624 1.37802 17.8335 1.33317 17.5084 1.54525L15.7973 2.66131C15.7885 2.6577 15.7799 2.65409 15.7711 2.65038L15.3503 0.651328C15.2704 0.271688 14.9355 0 14.5476 0H11.8667C11.4787 0 11.1439 0.271688 11.064 0.651328L10.6431 2.65038C10.6343 2.65398 10.6257 2.65759 10.6169 2.66131L8.90588 1.54525C8.58093 1.33328 8.15196 1.37823 7.87765 1.65233L5.98196 3.54791C5.70765 3.82233 5.66302 4.2513 5.87488 4.57614L6.99095 6.28731C6.98734 6.29606 6.98373 6.3047 6.98001 6.31345L4.98096 6.73433C4.60132 6.81417 4.32963 7.14908 4.32963 7.53703V8.05711H4.30787C2.13163 8.05711 0.360962 9.82767 0.360962 12.004V37.5215C0.360962 39.6978 2.13152 41.4684 4.30787 41.4684H7.41565C7.81224 44.3267 10.3226 46.4968 13.2068 46.4968C14.0573 46.4968 14.8651 46.3129 15.5948 45.9852L13.7395 53.2448C13.0027 56.1271 17.5949 57.1062 18.3026 54.3386L21.592 41.4687H24.2626V53.7917C24.2626 54.9928 25.27 56.0001 26.471 56.0001C27.6721 56.0001 28.6794 54.9928 28.6794 53.7917V41.4684H31.3502L34.6394 54.3383C35.3465 57.1053 39.9395 56.1279 39.2025 53.2446L36.193 41.4684H48.6344C50.8106 41.4684 52.5813 39.6979 52.5813 37.5215V19.7969C52.5813 19.3437 52.2141 18.9766 51.761 18.9766C51.3078 18.9766 50.9407 19.3437 50.9407 19.7969V37.5215C50.9407 38.7932 49.9061 39.8278 48.6344 39.8278L18.9976 39.8279C18.5974 36.9901 16.1537 34.7995 13.2069 34.7995C10.3226 34.7995 7.81235 36.9692 7.41576 39.8278H4.30787C3.03616 39.8278 2.00159 38.7932 2.00159 37.5215V13.6958H5.74571C5.76157 13.8836 5.84076 14.0658 5.98196 14.207L7.87765 16.1026C8.15185 16.3767 8.5806 16.4217 8.90577 16.2097L10.6168 15.0936C10.6256 15.0972 10.6343 15.1009 10.6431 15.1046L11.064 17.1036C11.1438 17.4833 11.4787 17.755 11.8667 17.755H14.5476C14.9355 17.755 15.2703 17.4833 15.3503 17.1036L15.7711 15.1046C15.7799 15.101 15.7886 15.0974 15.7974 15.0936L17.5084 16.2097C17.8336 16.4218 18.2626 16.3768 18.5367 16.1026L20.4323 14.207C20.5735 14.0658 20.6525 13.8836 20.6684 13.6958H43.3493L35.7021 21.343L31.7742 17.4162C31.1628 16.8022 30.1471 16.8025 29.5348 17.415L26.9848 19.9649C26.6643 20.2852 26.6643 20.8047 26.9847 21.1249C27.3051 21.4452 27.8245 21.4454 28.1447 21.125L30.6539 18.6161L34.583 22.5442C35.1947 23.1555 36.21 23.1573 36.8213 22.544L47.985 11.3802C48.2196 11.1455 48.2897 10.7928 48.1628 10.4862C48.0359 10.1796 47.7366 9.97981 47.4049 9.97981H46.0479C45.0613 9.97981 45.0623 8.45009 46.0479 8.45009H51.2549C51.6647 8.45009 51.9982 8.78303 51.9982 9.1922V14.3992C51.9982 14.8169 51.6503 15.1647 51.2327 15.1647C50.8107 15.1647 50.4673 14.8213 50.4673 14.3992V13.0434C50.4673 12.7117 50.2675 12.4124 49.9609 12.2855C49.6543 12.1583 49.3016 12.2287 49.067 12.4633L35.7026 25.8265L31.7731 21.898C31.1569 21.282 30.1534 21.2816 29.5347 21.8981L22.8023 28.6315C22.1131 29.3218 21.022 28.2484 21.7208 27.549L25.4109 23.8592C25.7313 23.5387 25.7313 23.0194 25.4109 22.699C25.0905 22.3789 24.5711 22.3787 24.2509 22.699L20.5608 26.3889C19.6049 27.345 19.6442 28.9398 20.6312 29.8562C21.5656 30.7239 23.062 30.6939 23.9631 29.7911L30.654 23.0992L34.5831 27.0272C35.1922 27.6384 36.2115 27.6406 36.8213 27.0283L48.8923 14.9583C49.1449 16.0164 50.0985 16.8056 51.2328 16.8056C52.5433 16.8056 53.6389 15.7103 53.6389 14.3994V9.1922C53.6391 7.87828 52.5696 6.80947 51.2551 6.80947ZM16.7131 53.932C16.5312 54.6437 15.1223 54.4596 15.3292 53.6511L17.695 44.3938C18.378 43.577 18.8418 42.5718 18.9975 41.4685H19.8986L16.7131 53.932ZM27.0388 53.7916C27.0388 54.5221 25.9032 54.5233 25.9032 53.7916V41.4684H27.0388V53.7916ZM37.6131 53.651C37.8194 54.4576 36.411 54.6431 36.2292 53.932L33.0437 41.4684H34.4996L37.6131 53.651ZM12.2571 36.5473C12.5673 36.4762 12.8869 36.4401 13.2069 36.4401C15.5272 36.4401 17.4148 38.3271 17.4156 40.6467L17.4155 40.6481L17.4156 40.6495C17.4148 42.9692 15.5271 44.8561 13.2069 44.8561C10.9046 44.8561 8.99896 42.9485 8.99896 40.648C8.99896 38.6757 10.3391 36.9893 12.2571 36.5473ZM2.00159 12.004C2.00159 10.7323 3.03616 9.69773 4.30787 9.69773H4.32963V10.2179C4.32963 10.6059 4.60132 10.9407 4.98096 11.0206L6.98001 11.4415C6.98362 11.4503 6.98723 11.4589 6.99095 11.4676L6.6077 12.0552H2.00159V12.004ZM17.8472 14.4717L16.3147 13.4722C15.7582 13.1095 14.3938 13.6819 14.2587 14.3242L13.8819 16.1141H12.5323L12.1555 14.3242C12.0188 13.6741 10.6491 13.1137 10.0995 13.4722L8.56704 14.4717L7.61263 13.5174L8.61221 11.985C8.97479 11.4286 8.40254 10.064 7.76029 9.92895L5.97026 9.55216V8.20269L7.76029 7.82589C8.41052 7.68917 8.97042 6.31947 8.61221 5.76986L7.61263 4.23741L8.56704 3.283L10.0995 4.28258C10.6559 4.64527 12.0204 4.07291 12.1555 3.43066L12.5324 1.64062H13.882L14.2588 3.43066C14.3955 4.08078 15.7652 4.64089 16.3148 4.28258L17.8473 3.283L18.8016 4.23741L17.802 5.76986C17.4392 6.32614 18.0119 7.69092 18.654 7.82589L20.444 8.20269V9.55227L18.654 9.92906C18.004 10.0657 17.4436 11.4356 17.802 11.9851L18.8016 13.5175L17.8472 14.4717ZM45.4895 11.5556L44.99 12.0551H19.8065L19.4234 11.4676C19.427 11.4589 19.4306 11.4501 19.4343 11.4414L21.4333 11.0205C21.8129 10.9407 22.0846 10.6058 22.0846 10.2178V9.69763H43.6917C43.875 10.6025 44.5909 11.3431 45.4895 11.5556Z" fill="#2F4BAC"/>
<path d="M46.7666 34.3457H31.2197C30.7666 34.3457 30.3994 34.7129 30.3994 35.166C30.3994 35.6192 30.7666 35.9863 31.2197 35.9863H46.7666C47.2198 35.9863 47.5869 35.6192 47.5869 35.166C47.5869 34.7129 47.2196 34.3457 46.7666 34.3457Z" fill="#3C61E2"/>
<path d="M46.7666 30.7468H37.5494C37.0963 30.7468 36.7291 31.114 36.7291 31.5671C36.7291 32.0203 37.0963 32.3875 37.5494 32.3875H46.7666C47.2197 32.3875 47.5869 32.0203 47.5869 31.5671C47.5869 31.114 47.2196 30.7468 46.7666 30.7468Z" fill="#3C61E2"/>
<path d="M7.49951 26.7083C7.04637 26.7083 6.6792 27.0754 6.6792 27.5286C6.6792 27.9817 7.04637 28.3489 7.49951 28.3489H13.2071C13.6603 28.3489 14.0274 27.9817 14.0274 27.5286C14.0274 27.0754 13.6603 26.7083 13.2071 26.7083H7.49951Z" fill="#3C61E2"/>
<path d="M13.2073 42.5747C13.6604 42.5747 14.0276 42.2076 14.0276 41.7544V39.542C14.0276 39.0889 13.6604 38.7217 13.2073 38.7217C12.7541 38.7217 12.387 39.0889 12.387 39.542V41.7544C12.387 42.2075 12.7541 42.5747 13.2073 42.5747Z" fill="white"/>
</svg>
