<svg width="56" height="56" viewBox="0 0 56 56" fill="none" xmlns="http://www.w3.org/2000/svg">
<g clip-path="url(#clip0_583_880)">
<path d="M54.8791 1.09375C54.8791 1.09375 54.668 6.9814 52.2213 13.9037L42.0691 3.75156C48.9914 1.30484 54.8791 1.09375 54.8791 1.09375Z" fill="#C5D2FF"/>
<path d="M42.0691 3.75171L52.2212 13.9039C50.6309 18.4079 48.0923 23.3495 44.052 27.3898C40.3288 31.113 35.8497 34.0934 31.1666 36.1595L19.8135 24.8064C21.196 21.6728 23.1253 18.3292 25.6749 15.1628C26.5674 14.0548 27.5353 12.9687 28.5831 11.9209C32.6235 7.88061 37.565 5.34202 42.0691 3.75171Z" fill="white"/>
<path d="M42.5043 13.4686C44.2127 15.177 44.2127 17.9475 42.5043 19.6559C40.7959 21.3643 38.0265 21.3643 36.317 19.6559C34.6085 17.9464 34.6085 15.177 36.317 13.4686C38.0254 11.7601 40.7959 11.7601 42.5043 13.4686Z" fill="#3C61E2"/>
<path d="M40.9579 30.4829C46.595 38.9387 36.0426 44.4042 30.1309 44.4042C33.224 41.311 32.3205 37.3134 32.3205 37.3134L31.1666 36.1595C34.3002 34.777 37.6438 32.8476 40.8102 30.2981L40.9579 30.4829Z" fill="#C5D2FF"/>
<path d="M18.5426 32.817L18.3654 32.6398C17.8426 32.1159 17.5856 31.3569 17.7693 30.6394C18.2254 28.8631 18.8992 26.8812 19.8136 24.8064L31.1667 36.1595C29.0918 37.0739 27.11 37.7476 25.3337 38.2037C24.6162 38.3875 23.8571 38.1304 23.3332 37.6076L23.1561 37.4304L18.5426 32.817Z" fill="#C5D2FF"/>
<path d="M25.4901 15.0151L25.6749 15.1628C23.1254 18.3292 21.196 21.6728 19.8135 24.8064L18.6596 23.6525C18.6596 23.6525 14.662 22.749 11.5688 25.8421C11.5688 19.9304 17.0343 9.37795 25.4901 15.0151Z" fill="#C5D2FF"/>
<path d="M18.5426 32.8169L23.156 37.4303C22.8246 38.7417 22.0382 40.122 20.8493 41.3109C18.2866 43.8736 11.5688 44.4041 11.5688 44.4041C11.5688 44.4041 12.0993 37.6863 14.662 35.1236C15.8509 33.9347 17.2312 33.1483 18.5426 32.8169Z" fill="#3C61E2"/>
<path d="M29.3849 28.163C29.8115 27.7353 29.8115 27.043 29.3849 26.6164C28.9573 26.1887 28.2649 26.1887 27.8373 26.6164C27.4107 27.043 27.4107 27.7353 27.8373 28.163C28.2649 28.5895 28.9573 28.5895 29.3849 28.163Z" fill="#3C61E2"/>
<path d="M43.3051 20.4292C45.4421 18.2923 45.4425 14.8324 43.3051 12.6951C41.1679 10.5581 37.7082 10.5579 35.5709 12.6951C33.4393 14.8267 33.4392 18.2961 35.5712 20.4295C37.7036 22.5605 41.1729 22.5614 43.3051 20.4292ZM37.1178 14.2419C38.4 12.9597 40.4759 12.9595 41.7583 14.2419C43.0405 15.524 43.0407 17.6 41.7583 18.8824C40.4794 20.1614 38.3976 20.1614 37.118 18.8826C35.8388 17.6027 35.8387 15.5208 37.1178 14.2419Z" fill="#2F4BAC"/>
<path d="M11.1775 26.8525C11.3127 26.9086 11.4549 26.9358 11.5958 26.9358C11.8805 26.9358 12.1602 26.8246 12.3694 26.6155C14.566 24.4189 17.2753 24.5563 18.1604 24.6727L18.5434 25.0557C17.7896 26.8494 17.1823 28.6331 16.737 30.3679C16.5762 30.9957 16.6304 31.6601 16.8694 32.2678C15.8164 32.7531 14.8004 33.4656 13.9158 34.3503C11.1003 37.1658 10.5286 44.0273 10.5057 44.318C10.4805 44.6371 10.5962 44.9512 10.8225 45.1775C11.0285 45.3833 11.3071 45.4978 11.5958 45.4978C11.6245 45.4978 11.6532 45.4968 11.682 45.4945C11.9727 45.4716 18.8345 44.8999 21.6499 42.0845C22.5342 41.2002 23.2466 40.1843 23.7319 39.1315C24.3753 39.3844 25.0374 39.4156 25.6329 39.263C27.3669 38.8178 29.1504 38.2108 30.9443 37.4568L31.3274 37.8399C31.4436 38.725 31.581 41.4344 29.3845 43.6307C29.0718 43.9435 28.9782 44.4139 29.1475 44.8226C29.3167 45.2313 29.7155 45.4977 30.1579 45.4977C34.487 45.4977 40.5392 42.9197 42.7683 38.7546C43.7364 36.9458 44.3955 34.0844 42.2935 30.5134C43.1846 29.7602 44.0428 28.9727 44.8524 28.1631C48.464 24.5516 51.2992 19.8766 53.2795 14.2683C55.7536 7.26851 55.9902 1.38021 55.999 1.13302C56.01 0.829509 55.8941 0.535182 55.6794 0.320369C55.4646 0.105667 55.1715 -0.010708 54.8668 0.000776343C54.6195 0.0096357 48.7313 0.246323 41.7318 2.72027C36.1231 4.70061 31.4481 7.53593 27.8367 11.1475C27.0274 11.9568 26.2399 12.8149 25.4864 13.7064C21.9155 11.6045 19.0541 12.2635 17.2451 13.2316C13.08 15.4607 10.502 21.513 10.502 25.8421C10.5023 26.2844 10.7688 26.6833 11.1775 26.8525ZM20.1031 40.5376C18.5992 42.0415 15.0713 42.8347 12.8415 43.1585C13.1654 40.9286 13.9587 37.4008 15.4625 35.897C16.3047 35.0548 17.2812 34.4163 18.2628 34.0567L21.9434 37.7374C21.5838 38.7189 20.9454 39.6954 20.1031 40.5376ZM25.0895 37.144C24.773 37.2251 24.4063 37.1061 24.1338 36.8339C18.8246 31.5249 25.6399 38.3401 19.1668 31.867C18.8941 31.5937 18.7751 31.2272 18.8559 30.9112C19.2062 29.5468 19.6644 28.1471 20.2215 26.7338L29.2663 35.7786C27.8528 36.3358 26.4533 36.7939 25.0895 37.144ZM40.8399 37.7224C39.4069 40.3998 35.7988 42.3733 32.5108 43.0527C33.5591 41.0799 33.7903 38.5685 33.4072 37.0457C33.3183 36.692 33.0875 36.5141 33.0746 36.4932C35.7251 35.2095 38.2351 33.6694 40.5653 31.8979C41.7035 33.9775 41.7973 35.9335 40.8399 37.7224ZM51.7683 11.8767L44.1234 4.23183C48.2885 2.93815 51.912 2.45372 53.7206 2.2796C53.5464 4.08855 53.0619 7.71203 51.7683 11.8767ZM29.3839 12.6943C32.6241 9.45393 36.8059 6.87509 41.8166 5.01878L50.9813 14.1835C49.1253 19.1941 46.5464 23.3759 43.3059 26.6164C42.3203 27.6018 41.259 28.5539 40.1515 29.4461C37.4891 31.5899 34.5587 33.4057 31.4323 34.8512L21.1489 24.568C22.5944 21.4414 24.4103 18.511 26.5538 15.849C27.4467 14.7407 28.3987 13.6793 29.3839 12.6943ZM18.2777 15.1602C20.067 14.2028 22.0227 14.2966 24.1022 15.4349C22.3306 17.7648 20.7905 20.2749 19.5068 22.9256C19.4905 22.9156 19.2936 22.668 18.9279 22.5856C18.7775 22.5516 15.8835 21.9291 12.9474 23.4896C13.6268 20.2014 15.6002 16.5933 18.2777 15.1602Z" fill="#2F4BAC"/>
<path d="M23.1976 49.8181L26.2907 46.7239C26.7177 46.2967 26.7176 45.6042 26.2905 45.1772C25.8632 44.75 25.1706 44.7503 24.7436 45.1774L21.6505 48.2716C21.2235 48.6988 21.2236 49.3914 21.6507 49.8184C22.078 50.2454 22.7706 50.2454 23.1976 49.8181Z" fill="#2F4BAC"/>
<path d="M7.72852 34.3495L10.8227 31.2564C11.2499 30.8294 11.2501 30.1368 10.8231 29.7096C10.3961 29.2824 9.70361 29.2824 9.27628 29.7094L6.18207 32.8025C5.75485 33.2295 5.75474 33.9221 6.18174 34.3493C6.60863 34.7763 7.30108 34.7767 7.72852 34.3495Z" fill="#2F4BAC"/>
<path d="M17.0101 46.7248L9.60107 54.1327C9.17385 54.5598 9.17385 55.2524 9.60096 55.6795C10.0278 56.1066 10.7205 56.1068 11.1477 55.6796L18.5568 48.2717C18.984 47.8446 18.984 47.152 18.5569 46.7249C18.13 46.2978 17.4373 46.2978 17.0101 46.7248Z" fill="#2F4BAC"/>
<path d="M8.26012 46.7248L0.851067 54.1327C0.423849 54.5598 0.423849 55.2524 0.850957 55.6795C1.27785 56.1066 1.97052 56.1068 2.39774 55.6796L9.80679 48.2717C10.234 47.8446 10.234 47.152 9.80689 46.7249C9.3799 46.2978 8.68723 46.2978 8.26012 46.7248Z" fill="#2F4BAC"/>
<path d="M1.86733 46.399L9.27528 38.9899C9.70239 38.5627 9.70239 37.8703 9.27517 37.443C8.84817 37.016 8.1555 37.016 7.72839 37.4431L0.32044 44.8522C-0.106669 45.2794 -0.106669 45.9719 0.320549 46.3991C0.747658 46.8262 1.44022 46.8262 1.86733 46.399Z" fill="#2F4BAC"/>
<path d="M32.4781 25.0688L34.0246 23.5222C34.4517 23.0951 34.4517 22.4026 34.0246 21.9754C33.5974 21.5483 32.9051 21.5483 32.4777 21.9754L30.9312 23.5219C30.5041 23.949 30.5041 24.6416 30.9312 25.0688C31.3584 25.4959 32.0508 25.4959 32.4781 25.0688Z" fill="#3C61E2"/>
</g>
<defs>
<clipPath id="clip0_583_880">
<rect width="56" height="56" fill="white"/>
</clipPath>
</defs>
</svg>
