<svg width="57" height="57" viewBox="0 0 57 57" fill="none" xmlns="http://www.w3.org/2000/svg">
<path d="M53.7369 10.9654L43.4793 6.18225V42.2799L55.6418 16.1979C56.0831 15.2515 56.1303 14.1685 55.7731 13.1872C55.4158 12.2059 54.6834 11.4067 53.7369 10.9654Z" fill="#C5D2FF"/>
<path d="M39.5418 1.52991H5.41681C3.24219 1.52991 1.47931 3.29279 1.47931 5.46741V52.2799C1.47931 54.4545 3.24219 56.2174 5.41681 56.2174H39.5418C41.7164 56.2174 43.4793 54.4545 43.4793 52.2799V5.46741C43.4793 3.29279 41.7164 1.52991 39.5418 1.52991Z" fill="white"/>
<path d="M39.1043 36.5299V11.1549C39.1043 10.43 38.5167 9.84241 37.7918 9.84241H7.16681C6.44194 9.84241 5.85431 10.43 5.85431 11.1549V36.5299C5.85431 37.2548 6.44194 37.8424 7.16681 37.8424H37.7918C38.5167 37.8424 39.1043 37.2548 39.1043 36.5299Z" fill="#ECEFF1"/>
<path d="M21.3418 15.0924L17.0543 22.5124C16.9677 22.6622 16.9116 22.8276 16.8892 22.9991C16.8668 23.1706 16.8785 23.3449 16.9237 23.5119C16.9689 23.6789 17.0466 23.8353 17.1524 23.9721C17.2583 24.1089 17.3901 24.2235 17.5404 24.3092L21.8279 26.754C22.0259 26.8669 22.25 26.9263 22.478 26.9263C22.706 26.9263 22.9301 26.8669 23.1281 26.754L27.4156 24.3092C27.5663 24.2237 27.6985 24.1093 27.8047 23.9724C27.9109 23.8356 27.989 23.6791 28.0344 23.5119C28.0798 23.3448 28.0917 23.1703 28.0694 22.9985C28.0471 22.8267 27.991 22.6611 27.9043 22.5111L23.6168 15.0924C23.5017 14.8925 23.336 14.7264 23.1363 14.611C22.9366 14.4955 22.71 14.4347 22.4793 14.4347C22.2486 14.4347 22.022 14.4955 21.8223 14.611C21.6226 14.7264 21.4569 14.8925 21.3418 15.0924Z" fill="#3C61E2"/>
<path d="M21.7793 29.4827L17.5644 26.8257C17.4765 26.7717 17.3722 26.7505 17.2701 26.766C17.168 26.7814 17.0747 26.8324 17.0066 26.9101C16.9385 26.9877 16.9001 27.0869 16.8981 27.1901C16.8961 27.2933 16.9307 27.3939 16.9957 27.4741L21.4669 32.8965C21.5901 33.0457 21.7447 33.1659 21.9197 33.2484C22.0947 33.3309 22.2858 33.3737 22.4793 33.3737C22.6728 33.3737 22.8639 33.3309 23.0389 33.2484C23.2139 33.1659 23.3685 33.0457 23.4917 32.8965L27.9651 27.4737C28.0302 27.3935 28.0647 27.2929 28.0627 27.1896C28.0607 27.0864 28.0223 26.9872 27.9542 26.9096C27.8861 26.832 27.7928 26.781 27.6907 26.7655C27.5886 26.7501 27.4844 26.7713 27.3964 26.8253L23.1793 29.4827C22.9697 29.6148 22.7271 29.6849 22.4793 29.6849C22.2316 29.6849 21.9889 29.6148 21.7793 29.4827Z" fill="#3C61E2"/>
<path d="M56.1721 47.5926V35.9673C56.1724 35.5063 56.0512 35.0533 55.8208 34.6539C55.5904 34.2545 55.2589 33.9229 54.8596 33.6923L44.7918 27.8815C44.3928 27.6511 43.9401 27.5298 43.4793 27.5298C43.0185 27.5298 42.5659 27.6511 42.1668 27.8815L32.0991 33.6941C31.6998 33.9246 31.3682 34.2563 31.1378 34.6556C30.9074 35.055 30.7863 35.508 30.7866 35.9691V47.5943C30.7863 48.0554 30.9074 48.5084 31.1378 48.9078C31.3682 49.3072 31.6998 49.6388 32.0991 49.8693L42.1668 55.6785C42.5659 55.9089 43.0185 56.0302 43.4793 56.0302C43.9401 56.0302 44.3928 55.9089 44.7918 55.6785L54.8596 49.8658C55.2586 49.6355 55.59 49.3041 55.8204 48.9051C56.0508 48.506 56.1721 48.0534 56.1721 47.5926Z" fill="#97AEFB"/>
<path d="M5.85431 6.56116H15.9168C16.0909 6.56116 16.2578 6.49202 16.3808 6.36895C16.5039 6.24588 16.5731 6.07896 16.5731 5.90491C16.5731 5.73086 16.5039 5.56394 16.3808 5.44087C16.2578 5.3178 16.0909 5.24866 15.9168 5.24866H5.85431C5.68026 5.24866 5.51334 5.3178 5.39027 5.44087C5.2672 5.56394 5.19806 5.73086 5.19806 5.90491C5.19806 6.07896 5.2672 6.24588 5.39027 6.36895C5.51334 6.49202 5.68026 6.56116 5.85431 6.56116Z" fill="#3C61E2"/>
<path d="M24.1856 14.763C24.0127 14.4639 23.7642 14.2156 23.465 14.0429C23.1658 13.8703 22.8265 13.7794 22.4811 13.7794C22.1357 13.7794 21.7963 13.8703 21.4971 14.0429C21.1979 14.2156 20.9494 14.4639 20.7766 14.763L16.4891 22.183C16.3593 22.4076 16.2753 22.6557 16.2418 22.9129C16.2082 23.1701 16.2258 23.4314 16.2936 23.6818C16.3614 23.9322 16.478 24.1668 16.6367 24.372C16.7954 24.5772 16.9931 24.749 17.2184 24.8775L21.5059 27.3231C21.8032 27.4917 22.1392 27.5804 22.4811 27.5804C22.8229 27.5804 23.1589 27.4917 23.4563 27.3231L27.7438 24.8784C27.9691 24.7498 28.1669 24.578 28.3256 24.3728C28.4844 24.1676 28.601 23.933 28.6688 23.6825C28.7365 23.4321 28.7541 23.1707 28.7206 22.9134C28.687 22.6561 28.6029 22.408 28.4731 22.1834L24.1856 14.763ZM27.4008 23.3379C27.3787 23.4214 27.3402 23.4995 27.2876 23.568C27.2351 23.6364 27.1694 23.6937 27.0945 23.7365L22.807 26.1813C22.7079 26.2374 22.5959 26.2669 22.4819 26.2669C22.368 26.2669 22.256 26.2374 22.1569 26.1813L17.8694 23.7356C17.7944 23.6928 17.7285 23.6355 17.6757 23.5671C17.6229 23.4987 17.5841 23.4206 17.5615 23.3372C17.5389 23.2538 17.5331 23.1667 17.5442 23.0811C17.5554 22.9954 17.5834 22.9127 17.6266 22.8379L21.9141 15.4179C21.9716 15.3179 22.0545 15.2349 22.1543 15.1772C22.2542 15.1194 22.3675 15.089 22.4828 15.089C22.5982 15.089 22.7115 15.1194 22.8113 15.1772C22.9112 15.2349 22.994 15.3179 23.0516 15.4179L27.3391 22.8379C27.382 22.9132 27.4094 22.9964 27.4197 23.0825C27.43 23.1686 27.423 23.2559 27.399 23.3393L27.4008 23.3379Z" fill="#2F4BAC"/>
<path d="M27.0446 26.2705L22.8293 28.9275C22.7243 28.9931 22.6031 29.0279 22.4793 29.0279C22.3555 29.0279 22.2342 28.9931 22.1293 28.9275L17.914 26.2705C17.694 26.1308 17.4314 26.0742 17.1734 26.1109C16.9154 26.1476 16.679 26.2752 16.5068 26.4707C16.3345 26.6662 16.2377 26.9168 16.2338 27.1774C16.2299 27.4379 16.3192 27.6913 16.4855 27.8919L20.9607 33.3138C21.1466 33.5359 21.3789 33.7146 21.6412 33.8371C21.9036 33.9597 22.1897 34.0232 22.4793 34.0232C22.7689 34.0232 23.0549 33.9597 23.3173 33.8371C23.5797 33.7146 23.812 33.5359 23.9978 33.3138L28.473 27.8915C28.6381 27.6909 28.7264 27.4381 28.722 27.1783C28.7177 26.9186 28.6211 26.6689 28.4495 26.4739C28.2778 26.2789 28.0424 26.1513 27.7853 26.1141C27.5282 26.0768 27.2663 26.1323 27.0463 26.2705H27.0446ZM22.9855 32.4787C22.9239 32.5533 22.8466 32.6134 22.7591 32.6546C22.6716 32.6959 22.576 32.7172 22.4793 32.7172C22.3825 32.7172 22.287 32.6959 22.1995 32.6546C22.112 32.6134 22.0347 32.5533 21.9731 32.4787L18.3668 28.1067L21.4293 30.0378C21.744 30.235 22.1079 30.3396 22.4793 30.3396C22.8507 30.3396 23.2146 30.235 23.5293 30.0378L26.5918 28.1067L22.9855 32.4787Z" fill="#2F4BAC"/>
<path d="M55.1877 33.1257L49.8966 30.0711L56.2364 16.4753C56.7497 15.371 56.8041 14.1081 56.3875 12.9637C55.9709 11.8193 55.1175 10.8869 54.0143 10.3709L44.1356 5.76403V5.46741C44.1342 4.2495 43.6497 3.08186 42.7885 2.22067C41.9274 1.35948 40.7597 0.875047 39.5418 0.873657L5.41681 0.873657C4.1989 0.875047 3.03127 1.35948 2.17007 2.22067C1.30888 3.08186 0.824449 4.2495 0.823059 5.46741L0.823059 52.2799C0.824449 53.4978 1.30888 54.6654 2.17007 55.5266C3.03127 56.3878 4.1989 56.8723 5.41681 56.8737H39.5418C40.3512 56.8741 41.146 56.6585 41.8444 56.2493C42.3429 56.5353 42.9078 56.6856 43.4825 56.6851C44.0573 56.6847 44.6218 56.5335 45.1199 56.2467L55.1877 50.4341C55.6862 50.1452 56.1001 49.7305 56.3881 49.2315C56.676 48.7324 56.8278 48.1665 56.8283 47.5903V35.9673C56.8274 35.3915 56.6754 34.826 56.3875 34.3274C56.0996 33.8287 55.6859 33.4144 55.1877 33.1257V33.1257ZM44.1356 7.21216L53.46 11.56C54.248 11.9287 54.8577 12.5949 55.1552 13.4124C55.4526 14.23 55.4137 15.1322 55.0468 15.921L48.7556 29.4122L45.1199 27.3122C44.8136 27.1387 44.4812 27.0159 44.1356 26.9487V7.21216ZM39.5418 55.5612H5.41681C4.54685 55.5602 3.71279 55.2142 3.09764 54.5991C2.48249 53.9839 2.13649 53.1499 2.13556 52.2799V5.46741C2.13649 4.59745 2.48249 3.76339 3.09764 3.14824C3.71279 2.53308 4.54685 2.18708 5.41681 2.18616H39.5418C40.4118 2.18708 41.2458 2.53308 41.861 3.14824C42.4761 3.76339 42.8221 4.59745 42.8231 5.46741V26.9487C42.4773 27.0164 42.1449 27.1398 41.8387 27.314L39.7606 28.5132V11.1549C39.76 10.6329 39.5524 10.1325 39.1833 9.76343C38.8142 9.39434 38.3138 9.18674 37.7918 9.18616H7.16681C6.64484 9.18674 6.14442 9.39434 5.77533 9.76343C5.40625 10.1325 5.19864 10.6329 5.19806 11.1549V36.5299C5.19864 37.0519 5.40625 37.5523 5.77533 37.9214C6.14442 38.2905 6.64484 38.4981 7.16681 38.4987H30.1303V42.8737H5.85431C5.68026 42.8737 5.51334 42.9428 5.39027 43.0659C5.2672 43.1889 5.19806 43.3559 5.19806 43.5299C5.19806 43.704 5.2672 43.8709 5.39027 43.9939C5.51334 44.117 5.68026 44.1862 5.85431 44.1862H30.1303V47.5925C30.1321 47.7706 30.1484 47.9483 30.1793 48.1237H5.85431C5.68026 48.1237 5.51334 48.1928 5.39027 48.3159C5.2672 48.4389 5.19806 48.6059 5.19806 48.7799C5.19806 48.954 5.2672 49.1209 5.39027 49.2439C5.51334 49.367 5.68026 49.4362 5.85431 49.4362H30.7069C30.9819 49.8447 31.3457 50.1858 31.7709 50.4341L40.4273 55.4321C40.1395 55.5158 39.8415 55.5592 39.5418 55.5612V55.5612ZM38.4481 11.1549V29.2709L31.7709 33.1257C31.2724 33.4146 30.8585 33.8293 30.5706 34.3283C30.2826 34.8274 30.1308 35.3933 30.1303 35.9695V37.1862H7.16681C6.99276 37.1862 6.82584 37.117 6.70277 36.9939C6.5797 36.8709 6.51056 36.704 6.51056 36.5299V11.1549C6.51056 10.9809 6.5797 10.8139 6.70277 10.6909C6.82584 10.5678 6.99276 10.4987 7.16681 10.4987H37.7918C37.9659 10.4987 38.1328 10.5678 38.2558 10.6909C38.3789 10.8139 38.4481 10.9809 38.4481 11.1549ZM55.5158 47.5925C55.5155 47.9382 55.4243 48.2778 55.2516 48.5772C55.0789 48.8766 54.8305 49.1254 54.5314 49.2988L44.4637 55.1101C44.1642 55.2823 43.8248 55.3729 43.4793 55.3729C43.1338 55.3729 42.7944 55.2823 42.4949 55.1101L32.4272 49.2975C32.1281 49.1241 31.8798 48.8753 31.707 48.5759C31.5343 48.2764 31.4432 47.9369 31.4428 47.5912V43.5382V43.5299V43.5216V35.9673C31.4432 35.6216 31.5343 35.2821 31.707 34.9826C31.8798 34.6832 32.1281 34.4344 32.4272 34.261L42.4949 28.4497C42.7944 28.2775 43.1338 28.1869 43.4793 28.1869C43.8248 28.1869 44.1642 28.2775 44.4637 28.4497L54.5314 34.2623C54.8305 34.4357 55.0789 34.6845 55.2516 34.9839C55.4243 35.2834 55.5155 35.6229 55.5158 35.9686V47.5925Z" fill="#2F4BAC"/>
<path d="M45.4481 37.8424H41.5106C41.3365 37.8424 41.1696 37.9115 41.0465 38.0346C40.9234 38.1577 40.8543 38.3246 40.8543 38.4987V45.0612C40.8543 45.2352 40.9234 45.4021 41.0465 45.5252C41.1696 45.6483 41.3365 45.7174 41.5106 45.7174C41.6846 45.7174 41.8515 45.6483 41.9746 45.5252C42.0977 45.4021 42.1668 45.2352 42.1668 45.0612V42.6549H45.0106C45.1846 42.6549 45.3515 42.5858 45.4746 42.4627C45.5977 42.3396 45.6668 42.1727 45.6668 41.9987C45.6668 41.8246 45.5977 41.6577 45.4746 41.5346C45.3515 41.4115 45.1846 41.3424 45.0106 41.3424H42.1668V39.1549H45.4481C45.6221 39.1549 45.789 39.0858 45.9121 38.9627C46.0352 38.8396 46.1043 38.6727 46.1043 38.4987C46.1043 38.3246 46.0352 38.1577 45.9121 38.0346C45.789 37.9115 45.6221 37.8424 45.4481 37.8424Z" fill="#2F4BAC"/>
<path d="M38.8856 37.8424C38.7115 37.8424 38.5446 37.9115 38.4215 38.0346C38.2984 38.1577 38.2293 38.3246 38.2293 38.4987V42.6917L35.5107 38.1609C35.4368 38.0379 35.3247 37.9425 35.1914 37.8893C35.0581 37.836 34.9111 37.828 34.7728 37.8663C34.6345 37.9046 34.5126 37.9872 34.4257 38.1014C34.3389 38.2156 34.2918 38.3552 34.2918 38.4987V45.0612C34.2918 45.2352 34.3609 45.4021 34.484 45.5252C34.6071 45.6483 34.774 45.7174 34.9481 45.7174C35.1221 45.7174 35.289 45.6483 35.4121 45.5252C35.5352 45.4021 35.6043 45.2352 35.6043 45.0612V40.8682L38.3229 45.3989C38.3968 45.5219 38.509 45.6174 38.6422 45.6706C38.7755 45.7238 38.9225 45.7318 39.0608 45.6935C39.1991 45.6552 39.321 45.5726 39.4079 45.4584C39.4947 45.3442 39.5418 45.2047 39.5418 45.0612V38.4987C39.5418 38.3246 39.4727 38.1577 39.3496 38.0346C39.2265 37.9115 39.0596 37.8424 38.8856 37.8424Z" fill="#2F4BAC"/>
<path d="M52.0106 37.8424H48.0731C47.899 37.8424 47.7321 37.9115 47.609 38.0346C47.4859 38.1577 47.4168 38.3246 47.4168 38.4987C47.4168 38.6727 47.4859 38.8396 47.609 38.9627C47.7321 39.0858 47.899 39.1549 48.0731 39.1549H49.3856V45.0612C49.3856 45.2352 49.4547 45.4021 49.5778 45.5252C49.7008 45.6483 49.8678 45.7174 50.0418 45.7174C50.2159 45.7174 50.3828 45.6483 50.5058 45.5252C50.6289 45.4021 50.6981 45.2352 50.6981 45.0612V39.1549H52.0106C52.1846 39.1549 52.3515 39.0858 52.4746 38.9627C52.5977 38.8396 52.6668 38.6727 52.6668 38.4987C52.6668 38.3246 52.5977 38.1577 52.4746 38.0346C52.3515 37.9115 52.1846 37.8424 52.0106 37.8424Z" fill="#2F4BAC"/>
</svg>
