<svg width="56" height="56" viewBox="0 0 56 56" fill="none" xmlns="http://www.w3.org/2000/svg">
<g clip-path="url(#clip0_583_1115)">
<path d="M50.347 54.9875L39.3648 44.0051C39.1085 43.7489 39.1085 43.3334 39.3648 43.0771L43.0771 39.3648C43.3334 39.1085 43.7489 39.1085 44.0051 39.3648L54.9874 50.347C55.2436 50.6033 55.2436 51.0188 54.9874 51.2751L51.2751 54.9874C51.0188 55.2438 50.6033 55.2438 50.347 54.9875Z" fill="#3C61E2"/>
<path d="M43.0771 39.3648L40.757 41.685C41.0132 41.4287 41.4287 41.4287 41.685 41.685L52.6672 52.6672C52.9235 52.9235 52.9235 53.339 52.6672 53.5953L54.9874 51.2751C55.2437 51.0188 55.2437 50.6033 54.9874 50.347L44.0052 39.3648C43.7489 39.1085 43.3334 39.1085 43.0771 39.3648Z" fill="white"/>
<path d="M34.996 37.3242L37.3159 35.0044L42.3722 40.0607L40.0524 42.3806L34.996 37.3242Z" fill="#4380A0"/>
<path d="M41.4053 46.0544L46.045 41.4148L48.3648 43.7346L43.7251 48.3743L41.4053 46.0544Z" fill="#97AEFB"/>
<path d="M43.7253 43.7349L46.0451 41.415L48.365 43.7349L46.0451 46.0547L43.7253 43.7349Z" fill="#97AEFB"/>
<path d="M22.1484 43.4766C33.9276 43.4766 43.4766 33.9276 43.4766 22.1484C43.4766 10.3692 33.9276 0.820312 22.1484 0.820312C10.3692 0.820312 0.820312 10.3692 0.820312 22.1484C0.820312 33.9276 10.3692 43.4766 22.1484 43.4766Z" fill="#97AEFB"/>
<path d="M22.1484 0.820312C21.5964 0.820312 21.0493 0.841312 20.5078 0.882437C31.5205 1.72014 40.1953 10.9212 40.1953 22.1484C40.1953 33.3757 31.5205 42.5766 20.5078 43.4144C21.0493 43.4556 21.5964 43.4766 22.1484 43.4766C33.9277 43.4766 43.4766 33.9277 43.4766 22.1484C43.4766 10.3692 33.9277 0.820312 22.1484 0.820312Z" fill="#3C61E2"/>
<path d="M22.1484 40.1953C32.1155 40.1953 40.1953 32.1155 40.1953 22.1484C40.1953 12.1814 32.1155 4.10156 22.1484 4.10156C12.1814 4.10156 4.10156 12.1814 4.10156 22.1484C4.10156 32.1155 12.1814 40.1953 22.1484 40.1953Z" fill="white"/>
<path d="M22.1484 4.10156C21.5953 4.10156 21.0483 4.12803 20.5078 4.17692C29.6928 5.00861 36.9141 12.7504 36.9141 22.1484C36.9141 31.5465 29.6928 39.2883 20.5078 40.12C21.0483 40.1688 21.5953 40.1953 22.1484 40.1953C32.0995 40.1953 40.1953 32.0995 40.1953 22.1484C40.1953 12.1974 32.0995 4.10156 22.1484 4.10156Z" fill="white"/>
<path d="M19.1406 22.5312H12.5781V12.9062C12.5781 12.6646 12.774 12.4688 13.0156 12.4688H18.7031C18.9447 12.4688 19.1406 12.6646 19.1406 12.9062V22.5312Z" fill="#97AEFB"/>
<path d="M15.8594 12.4688V22.5312H19.1406V12.9062C19.1406 12.6646 18.9447 12.4688 18.7031 12.4688H15.8594Z" fill="#97AEFB"/>
<path d="M32.2656 22.5312H25.7031V17.0625C25.7031 16.8209 25.899 16.625 26.1406 16.625H31.8281C32.0697 16.625 32.2656 16.8209 32.2656 17.0625V22.5312Z" fill="#97AEFB"/>
<path d="M28.9844 16.625V22.5312H32.2656V17.0625C32.2656 16.8209 32.0697 16.625 31.8281 16.625H28.9844Z" fill="#97AEFB"/>
<path d="M25.7031 22.5312H19.1406V8.75C19.1406 8.50839 19.3365 8.3125 19.5781 8.3125H25.2656C25.5072 8.3125 25.7031 8.50839 25.7031 8.75V22.5312Z" fill="#3C61E2"/>
<path d="M22.4219 8.3125V22.5312H25.7031V8.75C25.7031 8.50839 25.5072 8.3125 25.2656 8.3125H22.4219Z" fill="#3C61E2"/>
<path d="M55.5675 49.7672L54.7687 48.9682C54.4483 48.6477 53.9289 48.6478 53.6086 48.9681C53.2882 49.2884 53.2882 49.8078 53.6085 50.1281L54.2913 50.811L50.8112 54.2912L44.8947 48.3748L48.3749 44.8946L51.1351 47.6548C51.4556 47.975 51.9749 47.975 52.2952 47.6548C52.6156 47.3343 52.6156 46.815 52.2952 46.4947L48.9565 43.156C48.9559 43.1554 48.9555 43.1549 48.955 43.1543L46.6349 40.8342C46.6342 40.8335 46.6336 40.8331 46.6329 40.8324L44.5853 38.7848C44.3064 38.5058 43.9356 38.3521 43.5411 38.3521C43.1466 38.3521 42.7758 38.5058 42.497 38.7846L42.381 38.9007L39.4457 35.9647C41.5437 33.3434 43.059 30.237 43.7944 26.843H49.5743C50.0275 26.843 50.3946 26.4759 50.3946 26.0227C50.3946 25.5696 50.0275 25.2024 49.5743 25.2024H44.0852C44.1575 24.6807 44.2116 24.1533 44.2467 23.6207H53.4844C53.9375 23.6207 54.3047 23.2536 54.3047 22.8004C54.3047 22.3473 53.9375 21.9801 53.4844 21.9801H44.2951C44.2912 21.4493 44.2692 20.9219 44.229 20.3983H49.5744C50.0276 20.3983 50.3948 20.0312 50.3948 19.578C50.3948 19.1249 50.0276 18.7577 49.5744 18.7577H44.0416C43.4685 14.9866 41.9358 11.459 39.524 8.41203C39.2428 8.05689 38.727 7.99695 38.3716 8.27794C38.0165 8.55914 37.9564 9.07506 38.2375 9.43031C41.1283 13.0822 42.6562 17.4801 42.6562 22.1484C42.6562 33.4565 33.4565 42.6562 22.1484 42.6562C10.8404 42.6562 1.64062 33.4565 1.64062 22.1484C1.64062 10.8404 10.8404 1.64062 22.1484 1.64062C27.2604 1.64062 32.1575 3.53259 35.9372 6.96795C36.2724 7.27289 36.7915 7.24795 37.096 6.91272C37.4007 6.57748 37.376 6.05861 37.0406 5.75389C32.9583 2.04345 27.6695 0 22.1484 0C9.93573 0 0 9.93573 0 22.1484C0 32.9308 7.74528 41.9367 17.9641 43.8986V49.4329C17.9641 49.886 18.3312 50.2532 18.7844 50.2532C19.2375 50.2532 19.6047 49.886 19.6047 49.4329V44.15C20.1267 44.2099 20.6542 44.2519 21.1865 44.2748V53.2906C21.1865 53.7437 21.5537 54.1109 22.0068 54.1109C22.4599 54.1109 22.8271 53.7437 22.8271 53.2906V44.2855C23.3591 44.2694 23.8867 44.2355 24.4089 44.1824V49.4329C24.4089 49.886 24.7761 50.2532 25.2292 50.2532C25.6823 50.2532 26.0495 49.886 26.0495 49.4329V43.9528C29.7533 43.2919 33.1403 41.7064 35.9648 39.4457L38.9009 42.3811L38.7849 42.497C38.5059 42.7759 38.3522 43.1467 38.3522 43.5412C38.3522 43.9357 38.5059 44.3065 38.7847 44.5853L40.8331 46.6336C40.8335 46.634 40.8338 46.6344 40.8343 46.6349L43.1545 48.955C43.1549 48.9555 43.1555 48.9559 43.156 48.9565L49.7669 55.5673C50.0458 55.8464 50.4166 56 50.8111 56C51.2057 56 51.5763 55.8464 51.8553 55.5675L55.5675 51.8553C55.8464 51.5763 56 51.2057 56 50.8111C56 50.4166 55.8464 50.0458 55.5675 49.7672ZM38.371 37.2103L41.2207 40.0606L40.0607 41.2206L37.2104 38.3709C37.6113 37.9985 37.9985 37.6113 38.371 37.2103ZM43.7346 47.2148L42.5744 46.0547L46.0546 42.5745L47.2147 43.7347L43.7346 47.2148ZM43.5412 40.0609L44.8946 41.4143L41.4144 44.8945L40.061 43.5411L43.5412 40.0609Z" fill="#2F4BAC"/>
<path d="M10.7249 37.1647C14.0104 39.6343 17.9573 40.966 22.1484 41.0156C32.5519 41.0156 41.0156 32.5519 41.0156 22.1484C41.0156 11.745 32.5519 3.28125 22.1484 3.28125C17.1278 3.28125 12.4055 5.24639 8.85184 8.81464C5.31312 12.3677 3.33485 17.1 3.28126 22.1397C3.23204 26.7793 4.91784 31.2387 8.02803 34.6965C8.331 35.0333 8.84965 35.0608 9.18653 34.7578C9.5234 34.4549 9.55085 33.9361 9.24789 33.5993C6.41332 30.448 4.87693 26.3844 4.92189 22.1572C4.97078 17.5478 6.77929 13.2205 10.0143 9.97248C13.2579 6.71552 17.5672 4.92188 22.1484 4.92188C31.6472 4.92188 39.375 12.6497 39.375 22.1484C39.375 31.6472 31.6472 39.375 22.1582 39.3751C18.328 39.3296 14.7153 38.1117 11.7106 35.8533C11.3487 35.5809 10.8342 35.6541 10.562 36.0162C10.2897 36.3783 10.3626 36.8926 10.7249 37.1647Z" fill="#2F4BAC"/>
<path d="M25.2656 7.49219H19.5781C18.8846 7.49219 18.3203 8.05645 18.3203 8.75V11.6484H13.0156C12.3221 11.6484 11.7578 12.2127 11.7578 12.9062V21.7109H10.6599C10.2068 21.7109 9.8396 22.0781 9.8396 22.5312C9.8396 22.9844 10.2068 23.3516 10.6599 23.3516H34.1838C34.637 23.3516 35.0042 22.9844 35.0042 22.5312C35.0042 22.0781 34.637 21.7109 34.1838 21.7109H33.0859V17.0625C33.0859 16.369 32.5217 15.8047 31.8281 15.8047H26.5234V8.75C26.5234 8.05645 25.9592 7.49219 25.2656 7.49219ZM13.3984 13.2891H18.3203V21.7109H13.3984V13.2891ZM19.9609 9.13281H24.8828V21.7109H19.9609V9.13281ZM31.4453 17.4453V21.7109H26.5234V17.4453H31.4453Z" fill="#2F4BAC"/>
<path d="M31.6093 30.3026H27.7474L25.9931 25.8179C25.869 25.501 25.5652 25.2959 25.2218 25.2964C24.8815 25.2994 24.5783 25.5124 24.4599 25.8316L22.0624 32.2966L20.3868 27.5472C20.2796 27.2432 20.0042 27.0301 19.6829 27.0027C19.362 26.975 19.0542 27.1388 18.8969 27.4201L17.2878 30.3025H13.436C12.9829 30.3025 12.6157 30.6697 12.6157 31.1228C12.6157 31.5759 12.9829 31.9431 13.436 31.9431H17.7693C18.0665 31.9431 18.3406 31.7822 18.4856 31.5227L19.444 29.806L21.2696 34.9806C21.3845 35.3064 21.6911 35.5251 22.0366 35.528H22.0433C22.386 35.528 22.693 35.3147 22.8123 34.9928L25.2495 28.4207L26.4234 31.4217C26.5465 31.7362 26.8496 31.9432 27.1873 31.9432H31.6093C32.0625 31.9432 32.4297 31.576 32.4297 31.1229C32.4297 30.6698 32.0625 30.3026 31.6093 30.3026Z" fill="#3C61E2"/>
</g>
<defs>
<clipPath id="clip0_583_1115">
<rect width="56" height="56" fill="white"/>
</clipPath>
</defs>
</svg>
