<svg width="56" height="56" viewBox="0 0 56 56" fill="none" xmlns="http://www.w3.org/2000/svg">
<path d="M24.5 37.5V42L31.5 43.5V36.5L42 22L43.5 19H48.5L51 18.5L53 16.5L53.5 12.5L51 9.5L49.5 8.5L46 9L44 6.5L41 4.5H38H36.5L33 6H32.5L28.5 4.5L25.5 5L23.5 6L22 4.5L19 2H14L9.5 5L7.5 8.5L5 9L2.5 11L2 14.5L4 18.5L8 19L13 19.5L19 29L24.5 37.5Z" fill="white"/>
<path d="M39.6786 34.2694L40.8266 32.0391L37.2802 28.4927L33.6945 33.6149C35.5626 35.2197 36.75 37.5944 36.75 40.2501C36.75 45.0827 32.8326 49.0001 28 49.0001C23.1674 49.0001 19.25 45.0827 19.25 40.2501C19.25 37.5944 20.4374 35.2197 22.3055 33.6149L18.7197 28.4927L15.1734 32.0391L16.3214 34.2694C16.0046 34.8898 15.7351 35.5426 15.5172 36.2198L13.125 36.9872V43.5138L15.5172 44.2803C15.7351 44.9576 16.0046 45.6103 16.3214 46.2307L15.1734 48.4611L19.7881 53.0758L22.0185 51.9278C22.6397 52.2454 23.2925 52.5141 23.9689 52.7319L24.7371 55.1251H31.2637L32.0302 52.7328C32.7066 52.5149 33.3602 52.2463 33.9806 51.9287L36.211 53.0767L40.8258 48.4619L39.6778 46.2315C39.9945 45.6112 40.264 44.9584 40.4819 44.2812L42.875 43.5129V36.9863L40.4827 36.2198C40.2649 35.5426 39.9954 34.8898 39.6786 34.2694Z" fill="white"/>
<path d="M16.625 20.125H11.375V4.375H16.625V20.125Z" fill="#3C61E2"/>
<path d="M23.625 20.125H18.375V11.375H23.625V20.125Z" fill="#97AEFB"/>
<path d="M30.625 20.125H25.375V7.875H30.625V20.125Z" fill="#97AEFB"/>
<path d="M37.625 20.125H32.375V9.625H37.625V20.125Z" fill="#3C61E2"/>
<path d="M44.625 20.125H39.375V13.125H44.625V20.125Z" fill="#97AEFB"/>
<path d="M21 27.125C22.4473 27.125 23.625 25.9473 23.625 24.5C23.625 23.0527 22.4473 21.875 21 21.875C19.5527 21.875 18.375 23.0527 18.375 24.5C18.375 25.9473 19.5527 27.125 21 27.125ZM21 23.625C21.483 23.625 21.875 24.0179 21.875 24.5C21.875 24.9821 21.483 25.375 21 25.375C20.517 25.375 20.125 24.9821 20.125 24.5C20.125 24.0179 20.517 23.625 21 23.625Z" fill="#3C61E2"/>
<path d="M28 27.125C29.4473 27.125 30.625 25.9473 30.625 24.5C30.625 23.0527 29.4473 21.875 28 21.875C26.5527 21.875 25.375 23.0527 25.375 24.5C25.375 25.9473 26.5527 27.125 28 27.125ZM28 23.625C28.483 23.625 28.875 24.0179 28.875 24.5C28.875 24.9821 28.483 25.375 28 25.375C27.517 25.375 27.125 24.9821 27.125 24.5C27.125 24.0179 27.517 23.625 28 23.625Z" fill="#3C61E2"/>
<path d="M35 27.125C36.4473 27.125 37.625 25.9473 37.625 24.5C37.625 23.0527 36.4473 21.875 35 21.875C33.5527 21.875 32.375 23.0527 32.375 24.5C32.375 25.9473 33.5527 27.125 35 27.125ZM35 23.625C35.483 23.625 35.875 24.0179 35.875 24.5C35.875 24.9821 35.483 25.375 35 25.375C34.517 25.375 34.125 24.9821 34.125 24.5C34.125 24.0179 34.517 23.625 35 23.625Z" fill="#3C61E2"/>
<path d="M53.375 29.036V25.8878L50.75 23.2628V19.5256C52.8159 18.5404 54.25 16.4369 54.25 14C54.25 10.6225 51.5016 7.875 48.125 7.875C47.6359 7.875 47.1511 7.9345 46.6742 8.05263C44.9234 5.22725 41.8548 3.5 38.5 3.5C36.4376 3.5 34.4374 4.16675 32.7845 5.39175C31.493 4.18075 29.792 3.5 28 3.5C26.4198 3.5 24.8885 4.04338 23.6591 5.01725C21.8724 2.43775 18.9333 0.875 15.75 0.875C11.4249 0.875 7.63525 3.78875 6.482 7.89687C3.346 8.16025 0.875 10.7966 0.875 14C0.875 16.7694 2.72387 19.1117 5.25 19.8669V23.2628L2.625 25.8878V29.036C1.60912 29.3982 0.875 30.3607 0.875 31.5C0.875 32.9473 2.05275 34.125 3.5 34.125C4.94725 34.125 6.125 32.9473 6.125 31.5C6.125 30.3607 5.39088 29.3982 4.375 29.036V26.6122L7 23.9872V20.125H8.75V33.411C7.73412 33.7732 7 34.7357 7 35.875C7 37.3223 8.17775 38.5 9.625 38.5C11.0723 38.5 12.25 37.3223 12.25 35.875C12.25 34.7357 11.5159 33.7732 10.5 33.411V20.125H11.7941L21.1592 33.5029C19.3856 35.3001 18.375 37.7134 18.375 40.25C18.375 45.5569 22.6931 49.875 28 49.875C33.3069 49.875 37.625 45.5569 37.625 40.25C37.625 37.7134 36.6144 35.3001 34.8408 33.5029L44.2059 20.125H45.5V33.411C44.4841 33.7732 43.75 34.7357 43.75 35.875C43.75 37.3223 44.9277 38.5 46.375 38.5C47.8223 38.5 49 37.3223 49 35.875C49 34.7357 48.2659 33.7732 47.25 33.411V20.125H48.125C48.4225 20.125 48.713 20.0961 49 20.055V23.9872L51.625 26.6122V29.036C50.6091 29.3982 49.875 30.3607 49.875 31.5C49.875 32.9473 51.0527 34.125 52.5 34.125C53.9473 34.125 55.125 32.9473 55.125 31.5C55.125 30.3607 54.3909 29.3982 53.375 29.036V29.036ZM3.5 32.375C3.017 32.375 2.625 31.9821 2.625 31.5C2.625 31.0179 3.017 30.625 3.5 30.625C3.983 30.625 4.375 31.0179 4.375 31.5C4.375 31.9821 3.983 32.375 3.5 32.375ZM9.625 36.75C9.142 36.75 8.75 36.3571 8.75 35.875C8.75 35.3929 9.142 35 9.625 35C10.108 35 10.5 35.3929 10.5 35.875C10.5 36.3571 10.108 36.75 9.625 36.75ZM46.375 36.75C45.892 36.75 45.5 36.3571 45.5 35.875C45.5 35.3929 45.892 35 46.375 35C46.858 35 47.25 35.3929 47.25 35.875C47.25 36.3571 46.858 36.75 46.375 36.75ZM35.875 40.25C35.875 44.5917 32.3426 48.125 28 48.125C23.6574 48.125 20.125 44.5917 20.125 40.25C20.125 38.283 20.867 36.4053 22.1804 34.9615L23.625 37.0256V42.6825L32.375 44.87V37.0256L33.8196 34.9615C35.133 36.4053 35.875 38.283 35.875 40.25V40.25ZM30.625 36.4744V42.63L25.375 41.3175V36.4744L13.9309 20.125H42.07L30.625 36.4744ZM7 18.375C4.58763 18.375 2.625 16.4124 2.625 14C2.625 11.5894 4.585 9.62763 7.03763 9.62763H7.04287L7.8855 9.66088L8.0325 8.932C8.77013 5.278 12.0155 2.625 15.75 2.625C18.662 2.625 21.3255 4.2245 22.6992 6.79875L23.2838 7.89337L24.1185 6.9755C25.1151 5.87913 26.53 5.25 28 5.25C29.561 5.25 31.0319 5.9395 32.0338 7.14175L32.6104 7.83388L33.285 7.23625C34.7314 5.95525 36.5837 5.25 38.5 5.25C41.4461 5.25 44.1228 6.87838 45.4851 9.49988L45.8448 10.1911L46.5728 9.91375C47.0785 9.72212 47.5991 9.625 48.125 9.625C50.5374 9.625 52.5 11.5876 52.5 14C52.5 16.4124 50.5374 18.375 48.125 18.375H7ZM52.5 32.375C52.017 32.375 51.625 31.9821 51.625 31.5C51.625 31.0179 52.017 30.625 52.5 30.625C52.983 30.625 53.375 31.0179 53.375 31.5C53.375 31.9821 52.983 32.375 52.5 32.375Z" fill="#2F4BAC"/>
</svg>
