<svg width="55" height="56" viewBox="0 0 55 56" fill="none" xmlns="http://www.w3.org/2000/svg">
<g clip-path="url(#clip0_583_937)">
<path d="M3.66548 22.7434L5.63675 26.1559C5.66561 26.2058 5.70711 26.2473 5.7571 26.2761C5.80709 26.3049 5.86378 26.32 5.92149 26.32H19.439C19.4967 26.32 19.5534 26.3049 19.6034 26.2761C19.6533 26.2473 19.6949 26.2058 19.7237 26.1559L21.695 22.7434C21.7238 22.6935 21.739 22.6369 21.739 22.5793C21.739 22.5217 21.7238 22.4651 21.6949 22.4152C21.6661 22.3653 21.6246 22.3239 21.5746 22.2951C21.5246 22.2663 21.4679 22.2512 21.4102 22.2512H3.95022C3.89253 22.2512 3.83584 22.2663 3.78587 22.2951C3.7359 22.3239 3.69439 22.3653 3.66553 22.4152C3.63667 22.4651 3.62147 22.5217 3.62146 22.5793C3.62145 22.6369 3.63663 22.6935 3.66548 22.7434Z" fill="white"/>
<path d="M33.0396 22.7434L35.0109 26.1559C35.0398 26.2058 35.0813 26.2473 35.1312 26.2761C35.1812 26.3049 35.2379 26.32 35.2956 26.32H48.8131C48.8708 26.32 48.9275 26.3049 48.9775 26.2761C49.0275 26.2473 49.069 26.2058 49.0979 26.1559L51.0691 22.7434C51.098 22.6935 51.1132 22.6369 51.1131 22.5793C51.1131 22.5217 51.0979 22.4651 51.0691 22.4152C51.0402 22.3653 50.9987 22.3239 50.9487 22.2951C50.8988 22.2663 50.8421 22.2512 50.7844 22.2512H33.3244C33.2667 22.2512 33.21 22.2663 33.16 22.2951C33.11 22.3239 33.0685 22.3653 33.0397 22.4152C33.0108 22.4651 32.9956 22.5217 32.9956 22.5793C32.9956 22.6369 33.0108 22.6935 33.0396 22.7434Z" fill="white"/>
<path d="M3.66548 22.7434L5.63675 26.1559C5.66561 26.2058 5.70711 26.2473 5.7571 26.2761C5.80709 26.3049 5.86378 26.32 5.92149 26.32H19.439C19.4967 26.32 19.5534 26.3049 19.6034 26.2761C19.6533 26.2473 19.6949 26.2058 19.7237 26.1559L21.695 22.7434C21.7238 22.6935 21.739 22.6369 21.739 22.5793C21.739 22.5217 21.7238 22.4651 21.6949 22.4152C21.6661 22.3653 21.6246 22.3239 21.5746 22.2951C21.5246 22.2663 21.4679 22.2512 21.4102 22.2512H3.95022C3.89253 22.2512 3.83584 22.2663 3.78587 22.2951C3.7359 22.3239 3.69439 22.3653 3.66553 22.4152C3.63667 22.4651 3.62147 22.5217 3.62146 22.5793C3.62145 22.6369 3.63663 22.6935 3.66548 22.7434Z" fill="#C5D2FF"/>
<path d="M10.2835 26.1559L8.31221 22.7434C8.28337 22.6935 8.26819 22.6369 8.26819 22.5793C8.2682 22.5217 8.2834 22.4651 8.31226 22.4152C8.34113 22.3653 8.38263 22.3239 8.4326 22.2951C8.48258 22.2663 8.53926 22.2512 8.59695 22.2512H3.94912C3.89153 22.2514 3.83498 22.2666 3.78516 22.2955C3.73534 22.3244 3.69399 22.3658 3.66526 22.4157C3.63652 22.4655 3.62142 22.522 3.62146 22.5796C3.6215 22.6371 3.63668 22.6936 3.66548 22.7434L5.63675 26.1559C5.66561 26.2058 5.70711 26.2473 5.7571 26.2761C5.80709 26.3049 5.86378 26.32 5.92149 26.32H10.5628C10.506 26.3191 10.4504 26.3035 10.4015 26.2747C10.3525 26.246 10.3119 26.205 10.2835 26.1559Z" fill="#C5D2FF"/>
<path d="M33.0396 22.7434L35.0109 26.1559C35.0398 26.2058 35.0813 26.2473 35.1312 26.2761C35.1812 26.3049 35.2379 26.32 35.2956 26.32H48.8131C48.8708 26.32 48.9275 26.3049 48.9775 26.2761C49.0275 26.2473 49.069 26.2058 49.0979 26.1559L51.0691 22.7434C51.098 22.6935 51.1132 22.6369 51.1131 22.5793C51.1131 22.5217 51.0979 22.4651 51.0691 22.4152C51.0402 22.3653 50.9987 22.3239 50.9487 22.2951C50.8988 22.2663 50.8421 22.2512 50.7844 22.2512H33.3244C33.2667 22.2512 33.21 22.2663 33.16 22.2951C33.11 22.3239 33.0685 22.3653 33.0397 22.4152C33.0108 22.4651 32.9956 22.5217 32.9956 22.5793C32.9956 22.6369 33.0108 22.6935 33.0396 22.7434Z" fill="#C5D2FF"/>
<path d="M40.2271 26.1559L38.2558 22.7434C38.227 22.6935 38.2118 22.6369 38.2118 22.5793C38.2118 22.5217 38.227 22.4651 38.2559 22.4152C38.2848 22.3653 38.3263 22.3239 38.3762 22.2951C38.4262 22.2663 38.4829 22.2512 38.5406 22.2512H33.3244C33.2667 22.2512 33.21 22.2663 33.16 22.2951C33.11 22.3239 33.0685 22.3653 33.0397 22.4152C33.0108 22.4651 32.9956 22.5217 32.9956 22.5793C32.9956 22.6369 33.0108 22.6935 33.0396 22.7434L35.0109 26.1559C35.0398 26.2058 35.0813 26.2473 35.1312 26.2761C35.1812 26.3049 35.2379 26.32 35.2956 26.32H40.5097C40.4523 26.3196 40.3961 26.3043 40.3465 26.2755C40.2969 26.2467 40.2558 26.2055 40.2271 26.1559Z" fill="#C5D2FF"/>
<path d="M29.5582 31.8807V11.8257C29.5582 11.6806 29.5005 11.5415 29.3978 11.439C29.2952 11.3364 29.1559 11.2788 29.0106 11.2788H25.7252C25.58 11.2788 25.4407 11.3364 25.338 11.439C25.2353 11.5415 25.1776 11.6806 25.1776 11.8257V31.8818H29.5582V31.8807Z" fill="#C5D2FF"/>
<path d="M27.0317 31.8807V11.8257C27.0317 11.6806 27.0894 11.5415 27.1921 11.439C27.2948 11.3364 27.4341 11.2788 27.5793 11.2788H25.7252C25.58 11.2788 25.4407 11.3364 25.338 11.439C25.2353 11.5415 25.1776 11.6806 25.1776 11.8257V31.8818H27.0394L27.0317 31.8807Z" fill="#97AEFB"/>
<path d="M27.3678 6.94422C29.0608 6.94422 30.4332 5.57359 30.4332 3.88282C30.4332 2.19205 29.0608 0.821411 27.3678 0.821411C25.6749 0.821411 24.3025 2.19205 24.3025 3.88282C24.3025 5.57359 25.6749 6.94422 27.3678 6.94422Z" fill="#97AEFB"/>
<path d="M27.0394 3.88168C27.0404 3.31361 27.1996 2.75703 27.4992 2.27414C27.7987 1.79125 28.2269 1.4011 28.7358 1.1473C28.2683 0.913893 27.7488 0.803705 27.2266 0.827201C26.7045 0.850696 26.197 1.00709 25.7524 1.28155C25.3078 1.556 24.9408 1.93939 24.6863 2.39532C24.4318 2.85126 24.2982 3.3646 24.2982 3.8866C24.2982 4.4086 24.4318 4.92194 24.6863 5.37787C24.9408 5.8338 25.3078 6.2172 25.7524 6.49165C26.197 6.7661 26.7045 6.9225 27.2266 6.94599C27.7488 6.96949 28.2683 6.8593 28.7358 6.62589C28.2269 6.37209 27.7987 5.98194 27.4992 5.49905C27.1996 5.01617 27.0404 4.45958 27.0394 3.89152V3.88168Z" fill="#97AEFB"/>
<path d="M32.4866 36.5815V34.0659C32.4866 33.4858 32.2559 32.9294 31.8451 32.5191C31.4344 32.1089 30.8772 31.8784 30.2963 31.8784H24.4395C23.8585 31.8784 23.3014 32.1089 22.8907 32.5191C22.4799 32.9294 22.2491 33.4858 22.2491 34.0659V36.5815H32.4866Z" fill="#97AEFB"/>
<path d="M25.9442 36.5815V34.0659C25.9442 33.4858 26.175 32.9294 26.5857 32.5191C26.9965 32.1089 27.5536 31.8784 28.1345 31.8784H24.4395C23.8585 31.8784 23.3014 32.1089 22.8907 32.5191C22.4799 32.9294 22.2491 33.4858 22.2491 34.0659V36.5815H25.9442Z" fill="#97AEFB"/>
<path d="M36.658 41.5625V38.4562C36.658 37.959 36.4602 37.4822 36.1082 37.1306C35.7562 36.7791 35.2787 36.5815 34.7809 36.5815H19.9547C19.4569 36.5815 18.9794 36.7791 18.6274 37.1306C18.2754 37.4822 18.0776 37.959 18.0776 38.4562V41.5625H36.658Z" fill="#C5D2FF"/>
<path d="M22.697 41.5625V38.4562C22.697 37.959 22.8948 37.4822 23.2468 37.1306C23.5988 36.7791 24.0762 36.5815 24.5741 36.5815H19.9547C19.4569 36.5815 18.9794 36.7791 18.6274 37.1306C18.2754 37.4822 18.0776 37.959 18.0776 38.4562V41.5625H22.697Z" fill="#97AEFB"/>
<path d="M10.7665 41.4531C10.3822 41.4531 10.0018 41.5287 9.6468 41.6756C9.29183 41.8225 8.96932 42.0378 8.69768 42.3092C8.42604 42.5806 8.2106 42.9027 8.06366 43.2573C7.91672 43.6119 7.84116 43.9919 7.84131 44.3756V49.9264C7.84131 50.7012 8.14949 51.4443 8.69807 51.9922C9.24664 52.54 9.99066 52.8478 10.7665 52.8478H11.9525V45.1052H17.9342V52.8478H51.4284V41.4531H10.7665Z" fill="white"/>
<path d="M10.7664 52.8478C9.99063 52.8478 9.24661 52.54 8.69804 51.9922C8.14946 51.4443 7.84128 50.7012 7.84128 49.9264V44.3756C7.84113 43.9919 7.91669 43.6119 8.06363 43.2573C8.21057 42.9027 8.42601 42.5806 8.69765 42.3092C8.96929 42.0378 9.2918 41.8225 9.64677 41.6756C10.0017 41.5287 10.3822 41.4531 10.7664 41.4531H6.5249C5.02577 41.4739 3.59508 42.0832 2.5423 43.1493C1.48952 44.2154 0.899292 45.6526 0.899292 47.1499C0.899292 48.6473 1.48952 50.0844 2.5423 51.1505C3.59508 52.2166 5.02577 52.826 6.5249 52.8467L10.7664 52.8478Z" fill="#97AEFB"/>
<path d="M3.59209 47.1505C3.59194 46.4022 3.73943 45.6611 4.02614 44.9698C4.31284 44.2784 4.73313 43.6502 5.26301 43.1211C5.79288 42.592 6.42194 42.1724 7.11425 41.8862C7.80656 41.6 8.54855 41.4528 9.29783 41.4531H6.5249C5.02577 41.4739 3.59508 42.0832 2.5423 43.1493C1.48952 44.2154 0.899292 45.6526 0.899292 47.1499C0.899292 48.6473 1.48952 50.0844 2.5423 51.1505C3.59508 52.2166 5.02577 52.826 6.5249 52.8467H9.29783C8.54869 52.8469 7.80685 52.6996 7.11467 52.4135C6.4225 52.1273 5.79354 51.7077 5.26371 51.1788C4.73389 50.6498 4.31356 50.0218 4.02675 49.3307C3.73993 48.6395 3.59223 47.8987 3.59209 47.1505Z" fill="#3C61E2"/>
<path d="M11.9525 49.6464C11.5412 49.3818 11.203 49.0184 10.9688 48.5894C10.7346 48.1604 10.612 47.6796 10.612 47.191V41.6402C10.612 41.5789 10.612 41.5177 10.6186 41.4575C9.86929 41.4954 9.16319 41.8194 8.64628 42.3625C8.12938 42.9056 7.84119 43.6263 7.84131 44.3756V49.9264C7.84131 50.7012 8.14949 51.4443 8.69807 51.9922C9.24664 52.54 9.99066 52.8478 10.7665 52.8478H11.9525V49.6464Z" fill="white"/>
<path d="M17.9342 50.1123H51.4284V52.8467H17.9342V50.1123Z" fill="white"/>
<path d="M17.9342 54.8504V45.1051H11.9525V54.8504C11.9509 54.9116 11.9664 54.9721 11.9973 55.025C12.0283 55.0778 12.0735 55.121 12.1277 55.1496C12.1819 55.1781 12.2431 55.191 12.3043 55.1866C12.3654 55.1823 12.4242 55.1609 12.4738 55.1249L14.9489 53.4143L17.4184 55.1249C17.4681 55.1593 17.5262 55.1794 17.5865 55.1829C17.6468 55.1865 17.7069 55.1733 17.7602 55.1449C17.8136 55.1166 17.858 55.0741 17.8887 55.0221C17.9194 54.9701 17.9352 54.9107 17.9342 54.8504Z" fill="#3C61E2"/>
<path d="M14.7057 45.1051H11.9525V54.8504C11.9509 54.9116 11.9664 54.9721 11.9973 55.025C12.0283 55.0778 12.0735 55.121 12.1277 55.1496C12.1819 55.1781 12.2431 55.191 12.3043 55.1866C12.3654 55.1823 12.4242 55.1609 12.4738 55.1249L14.7112 53.5784L14.7057 45.1051Z" fill="#3C61E2"/>
<path d="M53.9144 52.0275H52.2497V42.2746H53.9144C54.1322 42.2746 54.3411 42.1882 54.4952 42.0343C54.6492 41.8805 54.7357 41.6718 54.7357 41.4543C54.7357 41.2367 54.6492 41.0281 54.4952 40.8742C54.3411 40.7204 54.1322 40.634 53.9144 40.634H37.4794V38.4563C37.4774 37.7426 37.1923 37.0587 36.6866 36.5544C36.1808 36.0501 35.4956 35.7665 34.781 35.7657H33.308V34.0682C33.3069 33.2858 33.001 32.5346 32.455 31.9736C31.909 31.4126 31.1658 31.0858 30.3828 31.0625V17.8282C30.3828 17.6106 30.2963 17.402 30.1423 17.2481C29.9882 17.0943 29.7793 17.0079 29.5615 17.0079C29.3436 17.0079 29.1347 17.0943 28.9807 17.2481C28.8266 17.402 28.7401 17.6106 28.7401 17.8282V31.0625H25.9956V12.0991H28.7401V14C28.7401 14.2176 28.8266 14.4263 28.9807 14.5801C29.1347 14.7339 29.3436 14.8204 29.5615 14.8204C29.7793 14.8204 29.9882 14.7339 30.1423 14.5801C30.2963 14.4263 30.3828 14.2176 30.3828 14V11.8257C30.3827 11.6459 30.3471 11.4679 30.278 11.3019C30.209 11.1359 30.1078 10.9851 29.9804 10.8581C29.853 10.7311 29.7017 10.6305 29.5353 10.5619C29.3689 10.4933 29.1906 10.4582 29.0106 10.4585H28.1892V7.67708C28.9186 7.5181 29.5869 7.15335 30.1147 6.62618C30.6426 6.099 31.0078 5.43156 31.167 4.70317H41.2336V6.19833L33.2028 21.4375C33.0123 21.4573 32.8297 21.5244 32.6717 21.6326C32.5137 21.7409 32.3853 21.8869 32.2982 22.0573C32.2112 22.2278 32.1681 22.4173 32.1731 22.6085C32.1781 22.7998 32.2309 22.9868 32.3267 23.1525L34.298 26.565C34.3993 26.7394 34.5447 26.8842 34.7196 26.985C34.8944 27.0858 35.0927 27.139 35.2946 27.1393H43.0286C43.2464 27.1393 43.4553 27.0528 43.6094 26.899C43.7634 26.7452 43.8499 26.5365 43.8499 26.319C43.8499 26.1014 43.7634 25.8927 43.6094 25.7389C43.4553 25.5851 43.2464 25.4986 43.0286 25.4986H35.5815L34.1775 23.0705H49.928L48.5251 25.4986H46.8616C46.6438 25.4986 46.4348 25.5851 46.2808 25.7389C46.1268 25.8927 46.0402 26.1014 46.0402 26.319C46.0402 26.5365 46.1268 26.7452 46.2808 26.899C46.4348 27.0528 46.6438 27.1393 46.8616 27.1393H48.8132C49.0149 27.139 49.213 27.0858 49.3877 26.985C49.5624 26.8842 49.7076 26.7394 49.8087 26.565L51.7799 23.1525C51.8757 22.9868 51.9286 22.7998 51.9335 22.6085C51.9385 22.4173 51.8955 22.2278 51.8084 22.0573C51.7213 21.8869 51.593 21.7409 51.435 21.6326C51.277 21.5244 51.0944 21.4573 50.9038 21.4375L42.8763 6.19833V4.70317H45.9504C46.1683 4.70317 46.3772 4.61675 46.5312 4.46291C46.6853 4.30907 46.7718 4.10042 46.7718 3.88286C46.7718 3.6653 46.6853 3.45665 46.5312 3.30281C46.3772 3.14897 46.1683 3.06255 45.9504 3.06255H31.1659C30.9783 2.1954 30.499 1.41857 29.8078 0.861409C29.1165 0.304246 28.2551 0.000366211 27.3668 0.000366211C26.4785 0.000366211 25.617 0.304246 24.9258 0.861409C24.2345 1.41857 23.7552 2.1954 23.5677 3.06255H8.78312C8.56528 3.06255 8.35636 3.14897 8.20233 3.30281C8.04829 3.45665 7.96176 3.6653 7.96176 3.88286C7.96176 4.10042 8.04829 4.30907 8.20233 4.46291C8.35636 4.61675 8.56528 4.70317 8.78312 4.70317H11.8583V6.19833L3.82865 21.4375C3.63808 21.4573 3.45548 21.5244 3.29749 21.6326C3.13949 21.7409 3.01111 21.8869 2.92404 22.0573C2.83696 22.2278 2.79395 22.4173 2.79893 22.6085C2.8039 22.7998 2.85671 22.9868 2.95253 23.1525V23.1525L4.9238 26.565C5.02513 26.7394 5.17048 26.8842 5.34535 26.985C5.52023 27.0858 5.7185 27.139 5.92039 27.1393H19.439C19.6407 27.139 19.8388 27.0858 20.0135 26.985C20.1882 26.8842 20.3334 26.7394 20.4345 26.565L22.4057 23.1525C22.5016 22.9868 22.5544 22.7998 22.5593 22.6085C22.5643 22.4173 22.5213 22.2278 22.4342 22.0573C22.3471 21.8869 22.2188 21.7409 22.0608 21.6326C21.9028 21.5244 21.7202 21.4573 21.5296 21.4375L13.5021 6.19833V4.70317H23.5688C23.7279 5.43148 24.0931 6.09882 24.621 6.62583C25.1489 7.15284 25.8172 7.51734 26.5465 7.67598V10.4585H25.7251C25.3622 10.4588 25.0141 10.6029 24.7575 10.8592C24.5008 11.1156 24.3565 11.4632 24.3562 11.8257V31.0625C23.573 31.0856 22.8295 31.4122 22.2833 31.9732C21.7371 32.5343 21.431 33.2856 21.4299 34.0682V35.7657H19.9548C19.2394 35.7665 18.5535 36.0508 18.0476 36.556C17.5418 37.0612 17.2572 37.7462 17.2563 38.4607V40.6372H6.52382C4.79301 40.6372 3.13309 41.3239 1.90923 42.5462C0.685363 43.7685 -0.00219727 45.4263 -0.00219727 47.1549C-0.00219727 48.8835 0.685363 50.5413 1.90923 51.7636C3.13309 52.9859 4.79301 53.6725 6.52382 53.6725H11.13V54.8549C11.13 55.0644 11.1873 55.27 11.2959 55.4493C11.4044 55.6286 11.56 55.7748 11.7458 55.8721C11.9315 55.9695 12.1404 56.0142 12.3498 56.0015C12.5592 55.9887 12.7612 55.919 12.9338 55.7999L14.9423 54.4119L16.9497 55.7999C17.1224 55.9189 17.3243 55.9885 17.5338 56.0012C17.7432 56.0139 17.9521 55.9692 18.1379 55.8719C18.3238 55.7746 18.4794 55.6284 18.5881 55.4492C18.6968 55.2699 18.7543 55.0644 18.7545 54.8549V53.6682H53.9089C54.1267 53.6682 54.3357 53.5817 54.4897 53.4279C54.6437 53.2741 54.7303 53.0654 54.7303 52.8479C54.7303 52.6303 54.6437 52.4216 54.4897 52.2678C54.3357 52.114 54.1267 52.0275 53.9089 52.0275H53.9144ZM41.2336 21.431H35.0635L41.2336 9.7213V21.431ZM42.8763 9.7213L49.0519 21.431H42.8763V9.7213ZM11.8594 9.7213V21.431H5.68931L11.8594 9.7213ZM19.1542 25.4997H6.20732L4.80771 23.0716H20.5582L19.1542 25.4997ZM19.6722 21.431H13.5021V9.7213L19.6722 21.431ZM25.1239 3.88176C25.1243 3.43861 25.2563 3.00553 25.5031 2.63728C25.75 2.26902 26.1006 1.98211 26.5107 1.81282C26.9207 1.64354 27.3718 1.59947 27.807 1.68619C28.2421 1.77291 28.6418 1.98652 28.9554 2.30003C29.269 2.61354 29.4825 3.01287 29.5689 3.44754C29.6553 3.88221 29.6107 4.33271 29.4408 4.74209C29.2709 5.15146 28.9833 5.50135 28.6143 5.7475C28.2454 5.99366 27.8116 6.12505 27.3679 6.12505C26.7725 6.12447 26.2018 5.88787 25.781 5.46723C25.3602 5.0466 25.1239 4.47634 25.1239 3.88176V3.88176ZM23.0705 34.0693C23.0708 33.7068 23.2151 33.3592 23.4718 33.1028C23.7284 32.8465 24.0765 32.7024 24.4394 32.7021H30.2963C30.6593 32.7024 31.0073 32.8465 31.264 33.1028C31.5206 33.3592 31.665 33.7068 31.6652 34.0693V35.7657H23.0705V34.0693ZM6.52492 52.0275C5.2426 52.0084 4.0193 51.4862 3.11928 50.5737C2.21926 49.6613 1.71476 48.4319 1.71476 47.1511C1.71476 45.8702 2.21926 44.6408 3.11928 43.7284C4.0193 42.816 5.2426 42.2938 6.52492 42.2746H7.66826C7.24505 42.8937 7.01906 43.6261 7.01992 44.3757V49.9265C7.01906 50.6761 7.24505 51.4084 7.66826 52.0275H6.52492ZM17.1129 53.9121L15.411 52.7352C15.2734 52.6406 15.1104 52.59 14.9434 52.59C14.7764 52.59 14.6133 52.6406 14.4757 52.7352L12.7739 53.9121V45.9277H17.1129V53.9121ZM50.607 44.2871H32.8524C32.6346 44.2871 32.4256 44.3735 32.2716 44.5273C32.1176 44.6812 32.031 44.8898 32.031 45.1074C32.031 45.325 32.1176 45.5336 32.2716 45.6874C32.4256 45.8413 32.6346 45.9277 32.8524 45.9277H50.607V48.3766H32.8524C32.6346 48.3766 32.4256 48.463 32.2716 48.6169C32.1176 48.7707 32.031 48.9794 32.031 49.1969C32.031 49.4145 32.1176 49.6231 32.2716 49.777C32.4256 49.9308 32.6346 50.0172 32.8524 50.0172H50.607V52.0286H18.7556V45.9266H25.6857C25.9036 45.9266 26.1125 45.8402 26.2665 45.6863C26.4205 45.5325 26.5071 45.3239 26.5071 45.1063C26.5071 44.8887 26.4205 44.6801 26.2665 44.5262C26.1125 44.3724 25.9036 44.286 25.6857 44.286H10.7664C10.5486 44.286 10.3397 44.3724 10.1857 44.5262C10.0316 44.6801 9.94508 44.8887 9.94508 45.1063C9.94508 45.3239 10.0316 45.5325 10.1857 45.6863C10.3397 45.8402 10.5486 45.9266 10.7664 45.9266H11.1311V52.0275H10.7664C10.2087 52.027 9.67389 51.8054 9.27948 51.4115C8.88507 51.0176 8.66323 50.4835 8.66265 49.9265V44.3757C8.66323 43.8186 8.88507 43.2845 9.27948 42.8906C9.67389 42.4967 10.2087 42.2752 10.7664 42.2746H23.9729C24.1907 42.2746 24.3997 42.1882 24.5537 42.0343C24.7077 41.8805 24.7943 41.6718 24.7943 41.4543C24.7943 41.2367 24.7077 41.0281 24.5537 40.8742C24.3997 40.7204 24.1907 40.634 23.9729 40.634H18.899V38.4563C18.8993 38.1767 19.0107 37.9087 19.2086 37.7111C19.4065 37.5134 19.6749 37.4022 19.9548 37.4019H34.781C35.0609 37.4022 35.3292 37.5134 35.5272 37.7111C35.7251 37.9087 35.8364 38.1767 35.8367 38.4563V40.634H27.8059C27.5881 40.634 27.3792 40.7204 27.2251 40.8742C27.0711 41.0281 26.9846 41.2367 26.9846 41.4543C26.9846 41.6718 27.0711 41.8805 27.2251 42.0343C27.3792 42.1882 27.5881 42.2746 27.8059 42.2746H50.607V44.2871Z" fill="#2F4BAC"/>
</g>
<defs>
<clipPath id="clip0_583_937">
<rect width="54.7368" height="56" fill="white"/>
</clipPath>
</defs>
</svg>
