<svg width="24" height="24" viewBox="0 0 24 24" fill="none" xmlns="http://www.w3.org/2000/svg">
<g clip-path="url(#clip0_36_2250)">
<path d="M23.0928 16.7391C23.6723 17.3202 23.9978 18.1074 23.9978 18.9281C23.9978 19.7488 23.6723 20.536 23.0928 21.1171L22.1828 22.1661C13.9928 30.0071 -5.93713 10.0821 1.78286 1.86613L2.93286 0.866132C3.51463 0.302809 4.29479 -0.0088188 5.10456 -0.00133303C5.91433 0.00615273 6.6886 0.332151 7.25985 0.906132C7.29085 0.937132 9.14385 3.34413 9.14385 3.34413C9.69368 3.92176 9.99976 4.68906 9.99845 5.48654C9.99715 6.28401 9.68857 7.05031 9.13685 7.62613L7.97885 9.08213C8.6197 10.6392 9.56192 12.0544 10.7514 13.2462C11.9408 14.4381 13.354 15.3831 14.9098 16.0271L16.3748 14.8621C16.9507 14.3108 17.7169 14.0026 18.5141 14.0015C19.3114 14.0004 20.0784 14.3065 20.6558 14.8561C20.6558 14.8561 23.0618 16.7081 23.0928 16.7391ZM21.7168 18.1931C21.7168 18.1931 19.3238 16.3521 19.2928 16.3211C19.0868 16.1169 18.8085 16.0023 18.5183 16.0023C18.2282 16.0023 17.9499 16.1169 17.7438 16.3211C17.7168 16.3491 15.6998 17.9561 15.6998 17.9561C15.5639 18.0643 15.4022 18.1352 15.2305 18.1619C15.0588 18.1885 14.8832 18.17 14.7208 18.1081C12.7053 17.3577 10.8746 16.1829 9.35269 14.6632C7.83079 13.1436 6.65326 11.3146 5.89986 9.30013C5.83305 9.13559 5.81128 8.95622 5.83676 8.78047C5.86224 8.60472 5.93407 8.43893 6.04486 8.30013C6.04486 8.30013 7.65185 6.28213 7.67885 6.25613C7.88312 6.05012 7.99773 5.77175 7.99773 5.48163C7.99773 5.19152 7.88312 4.91315 7.67885 4.70713C7.64785 4.67713 5.80686 2.28213 5.80686 2.28213C5.59776 2.09464 5.32486 1.99423 5.04411 2.00148C4.76335 2.00873 4.496 2.1231 4.29686 2.32113L3.14686 3.32113C-2.49513 10.1051 14.7758 26.4181 20.7208 20.8001L21.6318 19.7501C21.8453 19.5524 21.9735 19.2794 21.9894 18.9888C22.0053 18.6983 21.9075 18.4129 21.7168 18.1931Z" fill="#3C61E2"/>
</g>
<defs>
<clipPath id="clip0_36_2250">
<rect width="24" height="24" fill="white"/>
</clipPath>
</defs>
</svg>
