<svg width="345" height="398" viewBox="0 0 345 398" fill="none" xmlns="http://www.w3.org/2000/svg">
<g clip-path="url(#clip0_47_2495)">
<path d="M226.551 175.465C224.431 175.505 222.319 175.199 220.298 174.56C217.903 173.763 216.816 169.78 216.978 162.385C217.076 158.476 217.431 154.578 218.043 150.716C219.689 142.829 223.157 135.437 228.171 129.128C231.127 125.419 234.603 122.162 237.963 119.014C241.076 116.101 244.29 113.09 247.02 109.773C259.417 94.7076 260.537 74.0562 249.736 59.5579C242.348 49.6385 230.566 43.8646 219.711 44.8556L219.651 44.0718L219.724 44.8652C210.697 45.6873 201.548 51.6651 197.476 59.3986C195.305 63.525 193.573 69.9712 197.664 77.2618L197.817 77.5295C200.142 81.6718 204.469 89.3703 198.085 92.9837C196.674 93.7394 195.104 94.151 193.503 94.185C186.711 94.5037 179.846 89.7559 176.788 82.6724C170.821 68.8273 178.248 52.3247 186.421 42.3989C195.03 31.9473 207.32 24.9085 220.158 23.089C230.215 21.6647 240.655 23.3025 250.355 27.8241C260.055 32.3456 268.011 39.2793 273.425 47.8987C278.84 56.518 281.636 66.6764 281.554 77.3542C281.471 88.032 278.515 98.1617 273.005 106.711C268.735 113.339 263.119 118.928 257.676 124.332C251.563 130.412 245.24 136.699 240.878 144.451C237.613 150.251 237.15 155.887 237.134 161.116C237.134 161.617 237.348 166.623 237.517 169.72C237.699 173.008 235.706 174.713 233.646 174.942C231.292 175.246 228.924 175.421 226.551 175.465ZM222.131 43.1541C232.775 43.1541 243.879 49.0235 251.018 58.6083C256.656 66.1761 259.271 75.3467 258.579 85.1228C257.86 94.5353 254.253 103.497 248.25 110.786C245.457 114.183 242.192 117.229 239.054 120.177C235.735 123.287 232.3 126.502 229.421 130.119C224.562 136.232 221.201 143.395 219.606 151.038C219.011 154.805 218.666 158.607 218.573 162.42C218.378 171.278 220.068 172.804 220.805 173.05C224.654 174.324 228.735 173.875 233.458 173.346C234.673 173.209 236.047 172.199 235.913 169.793C235.747 166.801 235.524 161.677 235.527 161.094C235.543 155.652 236.034 149.769 239.475 143.655C243.939 135.708 250.349 129.341 256.541 123.185C261.914 117.841 267.475 112.316 271.653 105.835C282.644 88.7744 282.813 65.8256 272.064 48.7303C261.394 31.753 240.138 21.8558 220.368 24.6567C207.932 26.422 195.993 33.2601 187.639 43.4026C179.75 52.9811 172.556 68.8464 178.242 82.0319C180.955 88.3251 186.905 92.595 192.859 92.5982C193.047 92.5982 193.232 92.5982 193.417 92.5982C194.768 92.5738 196.094 92.2322 197.288 91.6008C201.902 88.9879 199.386 83.606 196.414 78.3133L196.261 78.0457C192.798 71.8671 192.722 64.9812 196.054 58.6625C200.432 50.3459 209.88 44.1642 219.568 43.2815C220.416 43.1923 221.274 43.1541 222.131 43.1541Z" fill="#3C61E2"/>
<path d="M233.136 214.888H223.292C222.089 214.887 220.935 214.409 220.085 213.559C219.234 212.708 218.755 211.556 218.755 210.353V200.526C218.755 199.324 219.234 198.171 220.085 197.321C220.935 196.471 222.089 195.993 223.292 195.992H233.136C234.339 195.993 235.493 196.471 236.345 197.321C237.196 198.171 237.675 199.324 237.677 200.526V210.363C237.672 211.564 237.192 212.714 236.341 213.562C235.49 214.41 234.338 214.887 233.136 214.888ZM223.292 197.576C222.512 197.577 221.764 197.887 221.212 198.438C220.66 198.989 220.35 199.737 220.349 200.517V210.353C220.35 211.133 220.66 211.881 221.212 212.432C221.764 212.983 222.512 213.294 223.292 213.294H233.136C233.916 213.294 234.665 212.984 235.217 212.432C235.769 211.881 236.08 211.133 236.082 210.353V200.526C236.08 199.746 235.769 198.999 235.217 198.447C234.665 197.896 233.916 197.586 233.136 197.585L223.292 197.576Z" fill="#3C61E2"/>
<path d="M247.619 242.017C247.562 242.017 247.506 242.01 247.45 241.998C228.595 237.894 192.425 227.869 161.992 206.848C147.961 197.155 137.005 186.295 129.425 174.576C120.816 161.247 116.489 146.678 116.587 131.275C116.741 107.861 126.619 86.3462 136.724 66.3098C144.167 51.5533 151.989 39.0242 159.973 29.0762C171.064 15.2565 182.54 6.30899 194.093 2.48206C204.074 -0.828656 215.668 -0.828656 229.545 2.48206C241.886 5.41997 254.271 10.6107 263.317 14.3994C294.825 27.6008 319.388 47.0732 334.356 70.7134C342.545 83.6441 346.196 97.9002 344.64 110.863C343.084 123.825 337.353 135.908 331.821 147.574C330.262 150.865 328.632 154.265 327.172 157.602C320.562 172.555 312.66 185.843 303.684 197.113C297.166 205.29 289.994 213.82 281.729 220.808C271.653 229.332 262.201 233.659 252.836 234.038C238.503 234.618 224.647 228.662 213.509 223.88C213.413 223.838 213.326 223.777 213.253 223.702C213.181 223.627 213.123 223.538 213.085 223.44C213.047 223.343 213.028 223.239 213.03 223.134C213.032 223.029 213.054 222.926 213.096 222.83C213.138 222.734 213.199 222.647 213.274 222.574C213.349 222.501 213.438 222.444 213.536 222.406C213.634 222.368 213.738 222.349 213.843 222.351C213.947 222.353 214.051 222.375 214.147 222.417C225.135 227.136 238.812 233.012 252.778 232.445C271.592 231.683 287.762 214.537 302.443 196.119C311.333 184.967 319.165 171.797 325.721 156.967C327.204 153.615 328.82 150.203 330.386 146.901C335.864 135.351 341.531 123.408 343.061 110.681C344.576 98.0882 341.008 84.2049 333.017 71.5802C318.227 48.2139 293.913 28.9391 262.699 15.862C243.33 7.74607 216.803 -3.37144 194.597 3.99244C175.232 10.4131 155.71 32.2116 138.156 67.0267C128.137 86.8911 118.341 108.218 118.191 131.285C118.006 159.924 133.051 184.906 162.907 205.529C193.104 226.394 229.048 236.351 247.785 240.43C247.996 240.452 248.19 240.558 248.324 240.723C248.458 240.888 248.52 241.1 248.498 241.311C248.475 241.522 248.37 241.716 248.204 241.85C248.039 241.983 247.827 242.046 247.616 242.023L247.619 242.017Z" fill="#3C61E2"/>
<path d="M110.293 357C108.75 357 104.324 354.518 86.0935 334.918C75.5133 323.542 65.2966 311.772 65.1946 311.657C65.1107 311.555 65.0535 311.434 65.0279 311.304C65.0024 311.175 65.0093 311.041 65.0482 310.914C65.087 310.788 65.1565 310.674 65.2505 310.581C65.3445 310.488 65.46 310.42 65.5868 310.382C82.1682 305.864 104.591 282.597 105.803 280.557C105.864 280.374 105.989 280.218 106.156 280.12C106.323 280.022 106.52 279.988 106.71 280.024C106.9 280.06 107.07 280.165 107.189 280.317C107.308 280.47 107.368 280.66 107.356 280.854C106.932 288.264 107.095 295.697 107.844 303.082C107.965 304.29 108.131 305.437 108.801 306.192C109.343 306.807 110.22 307.148 111.071 307.445C124.145 311.988 138.249 311.635 155.433 306.339C184.265 297.449 205.895 282.73 217.986 263.771C218.061 263.653 218.166 263.556 218.29 263.492C218.415 263.427 218.554 263.397 218.694 263.405C218.834 263.411 218.969 263.454 219.087 263.528C219.206 263.603 219.302 263.708 219.367 263.832C223.193 271.16 232.562 291.315 232.584 293.211C232.6 294.568 226.526 302.515 222.122 307.728C217.814 312.826 209.593 321.975 202.903 325.821C188.356 334.185 172.333 339.781 156.568 341.998C139.849 344.353 124.043 342.954 109.575 337.878L111.396 356.041C111.412 356.202 111.378 356.364 111.3 356.506C111.221 356.648 111.101 356.762 110.956 356.834C110.753 356.945 110.524 357.002 110.293 357ZM67.229 311.545C69.8055 314.496 78.1249 323.973 86.7823 333.302C102.943 350.713 108.096 354.496 109.722 355.222L107.873 336.776C107.859 336.641 107.88 336.506 107.933 336.381C107.986 336.257 108.07 336.148 108.177 336.066C108.284 335.983 108.41 335.928 108.544 335.908C108.677 335.887 108.814 335.901 108.941 335.947C136.884 346.217 171.721 341.912 202.119 324.431C213.41 317.941 230.145 295.463 230.99 293.166C230.671 291.331 223.12 274.685 218.589 265.763C212.036 275.641 202.99 284.343 191.679 291.637C181.475 298.213 169.454 303.665 155.914 307.84C138.376 313.257 123.976 313.575 110.558 308.926C109.553 308.576 108.412 308.126 107.614 307.221C106.639 306.113 106.419 304.637 106.272 303.222C105.599 296.573 105.395 289.884 105.66 283.205C105.073 283.842 104.285 284.7 103.223 285.789C101.505 287.548 97.9301 291.098 93.2746 295.103C86.304 301.1 76.2722 308.671 67.229 311.545Z" fill="#3C61E2"/>
<path d="M108.07 307.145C107.859 307.145 107.656 307.061 107.507 306.912C107.357 306.762 107.273 306.56 107.273 306.348C107.273 306.137 107.357 305.935 107.507 305.785C107.656 305.636 107.859 305.552 108.07 305.552C113.864 305.552 118.45 302.754 121.355 297.458C120.538 293.756 119.999 288.536 119.636 285.031C119.543 284.12 119.454 283.24 119.378 282.632C116.603 283.193 113.054 282.632 109.008 282.029C108.15 281.899 107.267 281.762 106.361 281.634C106.256 281.619 106.156 281.584 106.065 281.53C105.974 281.477 105.894 281.405 105.831 281.321C105.767 281.237 105.721 281.14 105.695 281.038C105.668 280.936 105.662 280.829 105.677 280.725C105.692 280.62 105.727 280.519 105.781 280.428C105.835 280.337 105.906 280.258 105.991 280.194C106.075 280.131 106.171 280.085 106.274 280.058C106.376 280.032 106.483 280.026 106.588 280.041C107.5 280.173 108.387 280.306 109.25 280.439C113.545 281.096 117.254 281.663 119.795 280.866C119.9 280.832 120.011 280.82 120.121 280.831C120.231 280.842 120.337 280.876 120.433 280.93C120.528 280.981 120.611 281.051 120.677 281.135C120.744 281.22 120.792 281.317 120.819 281.421C120.921 281.8 121.029 282.804 121.24 284.849C121.606 288.399 122.158 293.771 122.99 297.379C123.032 297.565 123.006 297.761 122.917 297.93C119.712 303.965 114.585 307.145 108.07 307.145Z" fill="#3C61E2"/>
<path d="M130.64 298.946C127.854 298.954 125.07 298.761 122.311 298.37C122.112 298.329 121.935 298.214 121.818 298.047C121.701 297.88 121.652 297.675 121.681 297.474C121.711 297.273 121.816 297.09 121.976 296.964C122.136 296.838 122.338 296.777 122.541 296.795C135.586 298.685 151.558 295.718 163.197 289.234C175.075 282.622 185.126 273.458 194.399 264.638C194.519 264.523 194.672 264.449 194.836 264.427C199.916 263.685 212.871 262.379 218.276 263.322C218.485 263.358 218.67 263.476 218.792 263.649C218.914 263.822 218.962 264.036 218.925 264.244C218.889 264.453 218.771 264.638 218.598 264.759C218.425 264.881 218.211 264.929 218.002 264.893C212.871 263.994 200.48 265.23 195.314 265.967C186.016 274.803 175.936 283.97 163.972 290.626C154.425 295.938 142.05 298.946 130.64 298.946Z" fill="#3C61E2"/>
<path d="M124.553 311.173C124.404 311.173 124.258 311.131 124.132 311.052C124.043 310.996 123.966 310.924 123.905 310.839C123.843 310.753 123.8 310.657 123.776 310.555C123.752 310.453 123.749 310.347 123.766 310.243C123.784 310.14 123.821 310.041 123.877 309.952C126.329 306.042 128.612 301.961 130.672 297.825C130.716 297.726 130.779 297.638 130.858 297.565C130.937 297.492 131.03 297.436 131.131 297.399C131.232 297.363 131.34 297.348 131.447 297.354C131.555 297.36 131.66 297.388 131.756 297.436C131.852 297.484 131.938 297.551 132.008 297.633C132.077 297.715 132.13 297.81 132.161 297.913C132.193 298.016 132.204 298.124 132.193 298.231C132.182 298.338 132.15 298.441 132.098 298.535C130.018 302.716 127.707 306.842 125.229 310.8C125.157 310.914 125.057 311.008 124.939 311.073C124.821 311.138 124.688 311.172 124.553 311.173Z" fill="#3C61E2"/>
<path d="M135.187 311.928C135.035 311.927 134.886 311.884 134.757 311.804C134.579 311.689 134.455 311.508 134.41 311.302C134.365 311.095 134.404 310.879 134.518 310.701C136.677 307.343 137.831 303.372 138.95 299.52C139.164 298.79 139.374 298.057 139.588 297.331C139.618 297.23 139.668 297.137 139.734 297.056C139.8 296.975 139.882 296.908 139.974 296.858C140.066 296.809 140.167 296.778 140.271 296.767C140.376 296.757 140.481 296.767 140.581 296.797C140.681 296.827 140.775 296.877 140.856 296.943C140.937 297.009 141.004 297.091 141.054 297.183C141.104 297.275 141.134 297.376 141.145 297.48C141.156 297.584 141.145 297.689 141.115 297.79C140.903 298.512 140.69 299.237 140.478 299.966C139.33 303.92 138.14 308.008 135.857 311.561C135.785 311.674 135.686 311.766 135.569 311.83C135.452 311.894 135.321 311.928 135.187 311.928Z" fill="#3C61E2"/>
<path d="M145.471 310.408C145.372 310.407 145.274 310.389 145.181 310.354C145.083 310.316 144.994 310.259 144.919 310.186C144.843 310.114 144.782 310.027 144.74 309.931C144.698 309.835 144.676 309.732 144.673 309.628C144.671 309.523 144.69 309.419 144.728 309.321C146.474 304.836 147.917 300.238 149.046 295.559C149.068 295.455 149.111 295.357 149.172 295.271C149.233 295.184 149.311 295.11 149.401 295.054C149.491 294.998 149.591 294.96 149.696 294.943C149.801 294.926 149.908 294.93 150.011 294.954C150.114 294.979 150.211 295.024 150.297 295.087C150.382 295.15 150.455 295.229 150.509 295.32C150.563 295.411 150.599 295.512 150.614 295.617C150.629 295.722 150.622 295.829 150.595 295.932C149.45 300.68 147.986 305.346 146.214 309.898C146.156 310.048 146.054 310.176 145.921 310.267C145.789 310.358 145.632 310.407 145.471 310.408Z" fill="#3C61E2"/>
<path d="M155.04 308.015C154.942 308.015 154.845 307.997 154.753 307.961C154.656 307.923 154.566 307.867 154.491 307.795C154.415 307.723 154.354 307.636 154.312 307.541C154.27 307.445 154.247 307.342 154.245 307.237C154.243 307.133 154.262 307.029 154.301 306.931C155.895 302.846 156.989 298.255 158.054 293.819L158.341 292.615C158.363 292.511 158.406 292.413 158.468 292.326C158.529 292.24 158.606 292.166 158.696 292.11C158.786 292.053 158.886 292.015 158.991 291.998C159.096 291.981 159.203 291.985 159.306 292.01C159.409 292.035 159.507 292.08 159.592 292.143C159.678 292.206 159.75 292.285 159.804 292.376C159.858 292.467 159.894 292.568 159.909 292.673C159.924 292.778 159.918 292.885 159.891 292.988L159.604 294.189C158.529 298.679 157.416 303.321 155.777 307.508C155.719 307.657 155.618 307.785 155.487 307.875C155.355 307.965 155.2 308.014 155.04 308.015Z" fill="#3C61E2"/>
<path d="M166.294 303.959C166.195 303.959 166.098 303.941 166.007 303.904C165.909 303.867 165.819 303.81 165.743 303.738C165.667 303.665 165.606 303.579 165.564 303.483C165.522 303.387 165.499 303.284 165.496 303.179C165.494 303.074 165.513 302.97 165.551 302.872C167.276 298.449 167.891 291.888 167.891 287.22C167.891 287.009 167.975 286.806 168.125 286.657C168.274 286.507 168.477 286.423 168.688 286.423C168.9 286.423 169.103 286.507 169.252 286.657C169.401 286.806 169.485 287.009 169.485 287.22C169.485 292.032 168.848 298.822 167.037 303.452C166.979 303.602 166.876 303.73 166.744 303.82C166.611 303.911 166.454 303.959 166.294 303.959Z" fill="#3C61E2"/>
<path d="M177.46 299.176H177.349C177.245 299.161 177.146 299.126 177.055 299.072C176.965 299.019 176.887 298.948 176.824 298.865C176.761 298.781 176.716 298.686 176.69 298.584C176.664 298.483 176.658 298.377 176.673 298.274C177.209 294.508 176.992 289.954 176.826 285.936C176.743 284.097 176.663 282.361 176.663 280.838C176.663 280.626 176.747 280.424 176.897 280.274C177.046 280.125 177.249 280.041 177.46 280.041C177.672 280.041 177.875 280.125 178.024 280.274C178.174 280.424 178.258 280.626 178.258 280.838C178.258 282.313 178.334 284.024 178.417 285.853C178.602 289.938 178.809 294.571 178.251 298.487C178.224 298.678 178.13 298.853 177.984 298.979C177.839 299.105 177.653 299.175 177.46 299.176Z" fill="#3C61E2"/>
<path d="M205.378 280.844H205.263C205.054 280.813 204.866 280.701 204.739 280.532C204.613 280.363 204.558 280.151 204.587 279.942C205.378 274.42 205.378 268.943 205.378 264.115C205.378 263.904 205.462 263.701 205.611 263.552C205.761 263.403 205.964 263.319 206.175 263.319C206.386 263.319 206.589 263.403 206.739 263.552C206.888 263.701 206.972 263.904 206.972 264.115C206.972 268.997 206.972 274.532 206.165 280.169C206.137 280.357 206.041 280.528 205.897 280.652C205.752 280.776 205.568 280.844 205.378 280.844Z" fill="#3C61E2"/>
<path d="M187.033 294.393C186.995 294.396 186.957 294.396 186.918 294.393C186.709 294.362 186.521 294.25 186.394 294.081C186.268 293.912 186.213 293.7 186.242 293.491C186.737 290.037 186.284 284.951 185.882 280.462C185.656 277.887 185.439 275.456 185.439 273.678C185.439 273.466 185.523 273.264 185.672 273.114C185.822 272.965 186.024 272.881 186.236 272.881C186.447 272.881 186.65 272.965 186.8 273.114C186.949 273.264 187.033 273.466 187.033 273.678C187.033 275.386 187.247 277.782 187.47 280.318C187.878 284.894 188.34 290.078 187.821 293.701C187.796 293.893 187.702 294.068 187.557 294.195C187.412 294.323 187.226 294.393 187.033 294.393Z" fill="#3C61E2"/>
<path d="M196.602 288.017C196.498 288.017 196.394 287.997 196.297 287.957C196.2 287.917 196.112 287.858 196.038 287.784C195.964 287.71 195.905 287.622 195.865 287.525C195.825 287.429 195.805 287.325 195.805 287.22C195.805 283.823 195.582 279.362 195.365 275.048C195.18 271.393 195.008 267.942 195.008 265.702C195.008 265.491 195.092 265.288 195.242 265.139C195.391 264.989 195.594 264.905 195.805 264.905C196.017 264.905 196.22 264.989 196.369 265.139C196.519 265.288 196.602 265.491 196.602 265.702C196.602 267.901 196.775 271.336 196.956 274.968C197.176 279.302 197.4 283.785 197.4 287.22C197.4 287.325 197.38 287.429 197.34 287.525C197.3 287.622 197.241 287.71 197.167 287.784C197.093 287.858 197.005 287.917 196.908 287.957C196.811 287.997 196.707 288.017 196.602 288.017Z" fill="#3C61E2"/>
<path d="M107.012 300.179C106.825 300.179 106.644 300.114 106.501 299.994C106.358 299.875 106.261 299.709 106.227 299.525C106.194 299.342 106.226 299.152 106.318 298.99C106.41 298.828 106.556 298.703 106.731 298.637C108.054 298.132 109.334 297.52 110.558 296.808C111.17 296.467 111.804 296.117 112.531 295.766C113.75 295.145 114.929 294.449 116.061 293.682C117.598 292.688 119.343 291.557 120.318 289.951C120.433 289.781 120.608 289.662 120.808 289.619C121.008 289.575 121.217 289.609 121.392 289.716C121.568 289.822 121.695 289.991 121.748 290.188C121.802 290.386 121.777 290.596 121.68 290.776C120.516 292.688 118.609 293.931 116.929 295.021C115.74 295.824 114.502 296.553 113.223 297.203C112.538 297.522 111.948 297.841 111.332 298.201C110.044 298.946 108.697 299.585 107.305 300.112C107.212 300.153 107.113 300.176 107.012 300.179Z" fill="#3C61E2"/>
<path d="M106.45 290.814C106.346 290.823 106.241 290.81 106.141 290.778C106.041 290.745 105.948 290.693 105.869 290.625C105.789 290.557 105.723 290.474 105.676 290.38C105.628 290.287 105.599 290.185 105.591 290.08C105.583 289.975 105.595 289.87 105.628 289.77C105.661 289.671 105.712 289.578 105.781 289.498C105.849 289.419 105.932 289.353 106.026 289.306C106.119 289.258 106.221 289.229 106.326 289.221C107.938 288.963 109.493 288.424 110.918 287.628C111.632 287.224 112.32 286.776 112.978 286.287L114.014 285.541C115.832 284.238 118.099 282.613 119.435 281.099C119.503 281.015 119.587 280.945 119.682 280.895C119.777 280.844 119.882 280.813 119.989 280.804C120.096 280.795 120.205 280.808 120.307 280.842C120.409 280.876 120.504 280.93 120.585 281.001C120.665 281.073 120.731 281.16 120.777 281.257C120.823 281.355 120.849 281.461 120.853 281.568C120.857 281.676 120.839 281.784 120.8 281.884C120.762 281.985 120.703 282.076 120.628 282.154C119.167 283.801 116.82 285.484 114.936 286.838L113.912 287.574C113.2 288.103 112.454 288.586 111.68 289.02C110.096 289.904 108.369 290.501 106.578 290.786C106.537 290.8 106.494 290.81 106.45 290.814Z" fill="#3C61E2"/>
</g>
<defs>
<clipPath id="clip0_47_2495">
<rect width="345" height="398" fill="white"/>
</clipPath>
</defs>
</svg>
