<svg width="24" height="22" viewBox="0 0 24 22" fill="none" xmlns="http://www.w3.org/2000/svg">
<path d="M23.894 4.13473C23.7521 3.90392 23.4924 3.77309 23.2221 3.79653L22.0254 3.90078L23.1693 1.59485C23.3055 1.32021 23.2517 0.989317 23.0355 0.771958C22.8193 0.554598 22.4887 0.499191 22.2134 0.634004L19.1859 2.11671C17.3154 1.12924 14.9786 1.42235 13.3705 2.88715C12.0285 4.10965 11.3231 5.98967 11.4546 7.86449C7.94701 7.51292 4.97794 5.50522 3.22228 2.26118C3.10579 2.04598 2.8874 1.90521 2.64332 1.88791C2.39878 1.8709 2.16318 1.97927 2.01759 2.17601C0.92868 3.64704 0.852274 5.66398 1.70592 7.32331C1.4706 7.26388 1.2202 7.18344 0.942508 7.09067C0.704617 7.01113 0.442351 7.06208 0.251429 7.22483C0.0605067 7.38758 -0.0312747 7.63841 0.00955352 7.88596C0.347335 9.93383 1.54153 11.5077 3.42797 12.4393C3.18234 12.5249 2.9317 12.5943 2.67684 12.6474C2.42362 12.7002 2.21859 12.8855 2.14054 13.1321C2.0625 13.3786 2.12353 13.6482 2.30025 13.837C3.65873 15.2891 5.62111 16.0038 7.01499 16.3467C5.43014 17.5878 3.71934 17.7955 1.23337 17.7101C0.945602 17.7014 0.680477 17.8635 0.559492 18.1244C0.438554 18.3853 0.485476 18.6932 0.678742 18.9063C1.71506 20.0486 5.49066 21.3366 9.45967 21.4332C9.61665 21.437 9.77678 21.439 9.94028 21.439C12.727 21.439 16.4101 20.8416 19.0537 18.198C21.0546 16.1971 22.3062 13.8936 22.7735 11.3518C23.1509 9.29877 22.9124 7.65477 22.7978 6.86464C22.7893 6.80656 22.7803 6.74492 22.773 6.69102L23.8925 4.88679C24.0352 4.65664 24.0358 4.36554 23.894 4.13473ZM21.3812 7.07014C21.5936 8.53377 22.2397 12.9877 18.0416 17.1858C15.6012 19.6261 12.0468 20.0643 9.49445 20.0023C7.31658 19.9493 5.36855 19.5328 3.95667 19.0577C4.52991 18.9874 5.04075 18.879 5.52295 18.7291C6.85229 18.3159 7.97532 17.5724 9.0571 16.3893C9.23743 16.1921 9.29284 15.911 9.20092 15.6601C9.10899 15.4092 8.88493 15.2304 8.6199 15.1965C7.93744 15.109 5.88685 14.7638 4.27209 13.65C4.73742 13.4597 5.1862 13.2215 5.61474 12.9373C5.84981 12.7813 5.97141 12.5018 5.9251 12.2235C5.87883 11.9452 5.67347 11.72 5.40056 11.6485C4.07892 11.302 2.48386 10.5267 1.74834 8.7959C2.21803 8.87821 2.72873 8.89813 3.27342 8.77602C3.52589 8.71949 3.7282 8.53105 3.80245 8.28318C3.87675 8.0353 3.8115 7.76661 3.63178 7.58052C2.71659 6.63261 2.37435 5.26658 2.66798 4.09765C3.62958 5.50301 4.84781 6.68577 6.24357 7.56022C8.02908 8.6789 10.1131 9.29713 12.2703 9.3479C12.4898 9.35254 12.7004 9.25672 12.8402 9.08666C12.9798 8.91665 13.0336 8.69179 12.9858 8.47696C12.6146 6.80844 13.144 5.02972 14.3344 3.94535C15.5691 2.82059 17.3939 2.64996 18.7719 3.5307C18.9823 3.66518 19.2478 3.68023 19.4721 3.57035L20.9506 2.84623L20.1768 4.40628C20.0618 4.63807 20.0809 4.91389 20.2267 5.12759C20.3725 5.34129 20.6219 5.45994 20.88 5.4373L21.9226 5.3465L21.4423 6.12064C21.2811 6.38047 21.3146 6.611 21.3812 7.07014Z" fill="#3C61E2"/>
</svg>
